<svg width="20" height="31" fill="none" xmlns="http://www.w3.org/2000/svg"><mask id="mask0_123_269" style="mask-type:alpha" maskUnits="userSpaceOnUse" x="0" y="0" width="20" height="31"><path fill="#C4C4C4" d="M0 0h19.097v30.273H0z"/></mask><g mask="url(#mask0_123_269)"><path fill-rule="evenodd" clip-rule="evenodd" d="M66.846 27.452c-3.156 0-5.593-.802-7.313-2.404-1.703-1.603-2.554-4.166-2.554-7.688 0-6.728 3.272-10.092 9.817-10.092 1.586 0 3.055.192 4.407.576 1.37.384 2.387.81 3.055 1.277v6.26h-6.01v-1.803c0-.634-.142-1.102-.426-1.402-.284-.3-.71-.45-1.277-.45s-.993.15-1.277.45c-.284.3-.426.768-.426 1.402v7.563c0 .635.142 1.102.426 1.403.284.3.71.45 1.277.45.568 0 .993-.15 1.277-.45.284-.301.426-.768.426-1.403v-2.028h6.01v6.486c-.684.467-1.703.893-3.055 1.277-1.335.384-2.788.576-4.357.576zM.759 22.994h1.252V11.725H.76V7.618h10.994c2.154 0 3.798.468 4.933 1.403 1.136.918 1.703 2.412 1.703 4.482 0 2.07-.567 3.573-1.703 4.508-1.135.918-2.78 1.377-4.933 1.377h-2.73v3.606h2.404v4.107H.76v-4.107zm9.116-7.162c.968 0 1.452-.534 1.452-1.603v-.901c0-.551-.125-.952-.376-1.202-.233-.267-.592-.4-1.076-.4h-.852v4.106h.852zm9.373 11.27v-4.108H20.5V11.725h-1.252V7.618H36.15v7.563h-5.61v-3.456h-3.03v3.957h2.204v2.855h-2.203v4.457h3.03v-3.956h5.61V27.1H19.247zm19.104-4.108H37.1v4.107h6.815c1.83-.674 1.985-4.263 1.82-6.05-.93-.153-2.975-.927-3.712-2.791-.737-1.865.56-5.384 1.3-6.91h6.261c.949 1.95 1.734 4.932 1.192 6.91-.433 1.583-2.637 2.52-3.685 2.791-.081.597-.141 2.228.27 3.984.313 1.33 1.1 1.883 1.71 2.066h7.162v-4.107h-1.177v-1.928c0-1.72-.802-2.705-2.404-2.955l-.026-.25c.835-.318 1.478-.885 1.929-1.703.45-.818.676-1.787.676-2.905 0-1.987-.568-3.423-1.703-4.308-1.135-.884-2.78-1.327-4.933-1.327H37.1v4.107h1.252v11.27zm55.632-11.269h1.252V7.618H85.77v4.107h1.202v3.807h-3.506v-3.807h1.202V7.618h-9.466v4.107h1.252v11.27h-1.252V27.1h9.466v-4.107h-1.202v-4.132h3.506v4.132H85.77V27.1h9.466v-4.107h-1.252V11.725zm-45.511 3.202a.813.813 0 100-1.627.813.813 0 000 1.627zm-2.466 2.384c-.802-.195-1.238-1.165-1.355-1.626-.479-.641-1.485-1.441-1.68.488-.244 2.412 2.574 3.605 3.035 3.605 3.17.135 3.74-2.114 3.848-2.765.108-.65-.271-.542-.542-.38-1.328.95-2.303.922-3.306.678z" fill="#FFB577"/><path d="M9.501 8.47c-.264.672.55 1.231.991 1.426-.18-.93.856-1.742 1.352-2.417.495-.676-.03-1.171-.976-1.607C11.153 7.178 9.832 7.63 9.5 8.47z" fill="#2D2D2B"/><path fill-rule="evenodd" clip-rule="evenodd" d="M11.551 11.225l-1.377-.61a3.188 3.188 0 01-1.023-.724c-.321-.354-.67-.973-.381-1.71.136-.346.36-.618.545-.82a10.64 10.64 0 01.278-.289 6.57 6.57 0 00.233-.247c.258-.292.34-.482.274-.785l-.337-1.543 1.434.66c.487.224 1.023.528 1.34.97.174.245.296.552.283.906a1.645 1.645 0 01-.341.91 8.192 8.192 0 01-.465.56l-.026.028a8.053 8.053 0 00-.44.528c-.267.361-.307.56-.283.688l.286 1.478zm-1.058-1.329c-.055-.285.004-.56.126-.821.181-.387.5-.749.796-1.083.159-.18.31-.35.43-.514.319-.435.214-.795-.154-1.113-.203-.176-.486-.338-.823-.493.073.332.041.61-.051.852-.14.367-.422.653-.695.932-.254.26-.501.511-.62.813-.129.327-.002.627.212.872.227.258.553.455.779.555z" fill="url(#paint0_linear_123_269)"/><path d="M6.675 6.256c-.519 1.32 1.081 2.416 1.947 2.8-.354-1.828 1.68-3.42 2.654-4.745.973-1.327-.06-2.3-1.917-3.154.56 2.564-2.035 3.448-2.684 5.099z" fill="#2D2D2B"/><path fill-rule="evenodd" clip-rule="evenodd" d="M9.68 10.384l-1.377-.61c-.498-.22-1.217-.646-1.756-1.238-.54-.592-1.02-1.508-.604-2.568.216-.55.58-1 .924-1.377.153-.166.314-.33.465-.484l.063-.064c.174-.177.335-.344.485-.514.582-.66.914-1.272.71-2.204L8.253-.217l1.434.66c.942.433 1.834.96 2.331 1.657.265.37.434.81.416 1.308-.019.49-.216.948-.524 1.368-.258.35-.576.71-.878 1.051l-.043.048c-.324.368-.637.723-.906 1.088-.555.75-.801 1.368-.69 1.943l.287 1.478zM8.62 9.055a2.297 2.297 0 01.003-.878c.2-1.04 1.045-1.996 1.81-2.86.31-.35.606-.686.841-1.007.811-1.104.23-1.964-1.06-2.714a10.17 10.17 0 00-.857-.439c.072.328.092.63.071.908-.084 1.113-.825 1.868-1.536 2.593-.5.51-.985 1.004-1.218 1.598-.376.954.357 1.792 1.119 2.327.292.205.588.366.827.472z" fill="url(#paint1_linear_123_269)"/><path fill-rule="evenodd" clip-rule="evenodd" d="M5.643 12.974v-2.657h7.793v.765c1.084.105 1.524.883 1.692 1.53.12.46.084.959-.118 1.39-.626 1.332-2.122 1.237-2.475 1.12-1.141 1.246-2.373 1.411-3.154 1.411-2.678-.108-3.608-2.417-3.738-3.559zm1.186-1.982h-.36c0 1.65 0 2.062.103 2.445.034.128.08.253.142.419l.04.11c.285.78 1.546 1.561 2.342 1.561-1.066-.255-1.546-.946-1.967-1.561-.336-.493-.34-2.188-.3-2.974zm6.622.916c.02.536-.033 1.778-.406 2.463.841-.15 1.111-.51 1.216-1.277.085-.612-.505-1.046-.81-1.186z" fill="#2D2D2B"/></g><defs><linearGradient id="paint0_linear_123_269" x1="10.742" y1="4.497" x2="10.742" y2="11.225" gradientUnits="userSpaceOnUse"><stop stop-color="#F2E7DF"/></linearGradient><linearGradient id="paint1_linear_123_269" x1="9.11" y1="-.217" x2="9.11" y2="10.384" gradientUnits="userSpaceOnUse"><stop stop-color="#F2E7DF"/></linearGradient></defs></svg>