<svg width="101" height="37" fill="none" xmlns="http://www.w3.org/2000/svg"><mask id="mask0_123_194" style="mask-type:alpha" maskUnits="userSpaceOnUse" x="0" y="0" width="20" height="31"><path fill="#C4C4C4" d="M0 0h19.097v30.273H0z"/></mask><g mask="url(#mask0_123_194)"><path fill-rule="evenodd" clip-rule="evenodd" d="M66.846 27.452c-3.156 0-5.593-.802-7.313-2.404-1.703-1.603-2.554-4.166-2.554-7.688 0-6.728 3.272-10.092 9.817-10.092 1.586 0 3.055.192 4.407.576 1.369.384 2.387.81 3.055 1.277v6.26h-6.01v-1.803c0-.634-.142-1.102-.426-1.402-.284-.3-.71-.45-1.277-.45s-.993.15-1.277.45c-.284.3-.426.768-.426 1.402v7.563c0 .635.142 1.102.426 1.403.284.3.71.45 1.277.45.568 0 .993-.15 1.277-.45.284-.301.426-.768.426-1.403v-2.028h6.01v6.486c-.684.467-1.703.893-3.055 1.277-1.335.384-2.788.576-4.357.576zM.759 22.994h1.252V11.725H.76V7.618h10.994c2.154 0 3.798.468 4.933 1.403 1.136.918 1.703 2.412 1.703 4.482 0 2.07-.567 3.573-1.703 4.508-1.135.918-2.78 1.377-4.933 1.377h-2.73v3.606h2.404v4.107H.76v-4.107zm9.116-7.162c.968 0 1.452-.534 1.452-1.603v-.901c0-.551-.125-.952-.376-1.202-.233-.267-.592-.4-1.076-.4h-.852v4.106h.852zm9.373 11.27v-4.108H20.5V11.725h-1.252V7.618H36.15v7.563h-5.61v-3.456h-3.03v3.957h2.204v2.855h-2.203v4.457h3.03v-3.956h5.61V27.1H19.247zm19.104-4.108H37.1v4.107h6.815c1.83-.674 1.985-4.263 1.82-6.05-.93-.153-2.975-.927-3.712-2.791-.737-1.865.56-5.384 1.3-6.91h6.261c.949 1.95 1.734 4.932 1.192 6.91-.433 1.583-2.637 2.52-3.685 2.791-.081.597-.141 2.228.27 3.984.313 1.33 1.1 1.883 1.71 2.066h7.162v-4.107h-1.177v-1.928c0-1.72-.802-2.705-2.404-2.955l-.026-.25c.835-.318 1.478-.885 1.929-1.703.45-.818.676-1.787.676-2.905 0-1.987-.568-3.423-1.703-4.308-1.135-.884-2.78-1.327-4.933-1.327H37.1v4.107h1.252v11.27zm55.632-11.269h1.252V7.618H85.77v4.107h1.202v3.807h-3.506v-3.807h1.202V7.618h-9.466v4.107h1.252v11.27h-1.252V27.1h9.466v-4.107h-1.202v-4.132h3.506v4.132H85.77V27.1h9.466v-4.107h-1.252V11.725zm-45.511 3.202a.813.813 0 100-1.627.813.813 0 000 1.627zm-2.466 2.384c-.802-.195-1.238-1.165-1.355-1.626-.479-.641-1.485-1.441-1.68.488-.244 2.412 2.574 3.605 3.035 3.605 3.17.135 3.74-2.114 3.848-2.765.108-.65-.271-.542-.542-.38-1.328.95-2.303.922-3.306.678z" fill="#FFB577"/><path d="M9.501 8.47c-.264.672.55 1.231.991 1.426-.18-.93.856-1.742 1.352-2.417.495-.676-.03-1.171-.976-1.607C11.153 7.178 9.832 7.63 9.5 8.47z" fill="#2D2D2B"/><path fill-rule="evenodd" clip-rule="evenodd" d="M11.551 11.225l-1.377-.61a3.188 3.188 0 01-1.023-.724c-.321-.354-.67-.973-.381-1.71.136-.346.36-.618.545-.82a10.64 10.64 0 01.278-.289 6.57 6.57 0 00.233-.247c.258-.292.34-.482.274-.785l-.337-1.543 1.434.66c.487.224 1.023.528 1.34.97.174.245.296.552.283.906a1.645 1.645 0 01-.341.91 8.192 8.192 0 01-.465.56l-.026.028a8.053 8.053 0 00-.44.528c-.267.361-.307.56-.283.688l.286 1.478zm-1.058-1.329c-.055-.285.004-.56.126-.821.181-.387.5-.749.796-1.083.159-.18.31-.35.43-.514.319-.435.214-.795-.154-1.113-.203-.176-.486-.338-.823-.493.073.332.041.61-.051.852-.14.367-.422.653-.695.932-.254.26-.501.511-.62.813-.129.327-.002.627.212.872.227.258.553.455.779.555z" fill="url(#paint0_linear_123_194)"/><path d="M6.675 6.256c-.519 1.32 1.081 2.416 1.947 2.8-.354-1.828 1.68-3.42 2.654-4.745.973-1.327-.06-2.3-1.917-3.154.56 2.564-2.035 3.448-2.684 5.099z" fill="#2D2D2B"/><path fill-rule="evenodd" clip-rule="evenodd" d="M9.68 10.384l-1.377-.61c-.498-.22-1.217-.646-1.756-1.238-.54-.592-1.02-1.508-.604-2.568.216-.55.58-1 .924-1.377.153-.166.314-.33.465-.484l.063-.064c.174-.177.335-.344.485-.514.582-.66.914-1.272.71-2.204L8.253-.217l1.434.66c.942.433 1.834.96 2.331 1.657.265.37.434.81.416 1.308-.019.49-.216.948-.524 1.368-.258.35-.576.71-.878 1.051l-.043.048c-.324.368-.637.723-.906 1.088-.555.75-.801 1.368-.69 1.943l.287 1.478zM8.62 9.055a2.297 2.297 0 01.003-.878c.2-1.04 1.045-1.996 1.81-2.86.31-.35.606-.686.841-1.007.811-1.104.23-1.964-1.06-2.714a10.17 10.17 0 00-.857-.439c.072.328.092.63.071.908-.084 1.113-.825 1.868-1.536 2.593-.5.51-.985 1.004-1.218 1.598-.376.954.357 1.792 1.119 2.327.292.205.588.366.827.472z" fill="url(#paint1_linear_123_194)"/><path fill-rule="evenodd" clip-rule="evenodd" d="M5.643 12.974v-2.657h7.793v.765c1.084.105 1.524.883 1.692 1.53.12.46.084.959-.118 1.39-.626 1.332-2.122 1.237-2.475 1.12-1.141 1.246-2.373 1.411-3.154 1.411-2.678-.108-3.608-2.417-3.738-3.559zm1.186-1.982h-.36c0 1.65 0 2.062.103 2.445.034.128.08.253.142.419l.04.11c.285.78 1.546 1.561 2.342 1.561-1.066-.255-1.546-.946-1.967-1.561-.336-.493-.34-2.188-.3-2.974zm6.622.916c.02.536-.033 1.778-.406 2.463.841-.15 1.111-.51 1.216-1.277.085-.612-.505-1.046-.81-1.186z" fill="#2D2D2B"/></g><mask id="mask1_123_194" style="mask-type:alpha" maskUnits="userSpaceOnUse" x="19" y="5" width="19" height="26"><path fill="#C4C4C4" d="M19.422 5.859h17.903v24.413H19.422z"/></mask><g mask="url(#mask1_123_194)"><path fill-rule="evenodd" clip-rule="evenodd" d="M67.822 27.452c-3.155 0-5.593-.802-7.312-2.404-1.703-1.603-2.554-4.166-2.554-7.688 0-6.728 3.272-10.092 9.816-10.092 1.586 0 3.055.192 4.408.576 1.369.384 2.387.81 3.055 1.277v6.26h-6.01v-1.803c0-.634-.142-1.102-.426-1.402-.284-.3-.71-.45-1.277-.45-.568 0-.994.15-1.277.45-.284.3-.426.768-.426 1.402v7.563c0 .635.142 1.102.426 1.403.283.3.71.45 1.277.45s.993-.15 1.277-.45c.284-.301.426-.768.426-1.403v-2.028h6.01v6.486c-.685.467-1.703.893-3.055 1.277-1.336.384-2.788.576-4.358.576zM1.736 22.994h1.252V11.725H1.736V7.618H12.73c2.153 0 3.798.468 4.933 1.403 1.135.918 1.703 2.412 1.703 4.482 0 2.07-.568 3.573-1.703 4.508-1.135.918-2.78 1.377-4.934 1.377H10v3.606h2.405v4.107H1.736v-4.107zm9.115-7.162c.969 0 1.453-.534 1.453-1.603v-.901c0-.551-.126-.952-.376-1.202-.234-.267-.593-.4-1.077-.4H10v4.106h.851zm9.373 11.27v-4.108h1.252V11.725h-1.252V7.618h16.904v7.563h-5.61v-3.456h-3.03v3.957h2.204v2.855h-2.204v4.457h3.03v-3.956h5.61V27.1H20.224zm19.105-4.108h-1.252v4.107h6.815c1.83-.674 1.984-4.263 1.82-6.05-.93-.153-2.975-.926-3.712-2.791-.737-1.865.56-5.384 1.3-6.91h6.26c.95 1.95 1.735 4.932 1.193 6.91-.434 1.583-2.638 2.52-3.686 2.791-.08.597-.14 2.228.271 3.984.312 1.33 1.1 1.883 1.71 2.066h7.162v-4.107h-1.177v-1.928c0-1.72-.801-2.705-2.404-2.955l-.025-.25c.835-.318 1.477-.885 1.928-1.703.451-.818.676-1.787.676-2.905 0-1.987-.567-3.423-1.702-4.308-1.136-.884-2.78-1.327-4.934-1.327H38.077v4.107h1.252v11.27zM94.96 11.725h1.252V7.618h-9.466v4.107h1.202v3.807h-3.506v-3.807h1.202V7.618h-9.466v4.107h1.252v11.27h-1.252V27.1h9.466v-4.107h-1.202v-4.132h3.506v4.132h-1.202V27.1h9.466v-4.107H94.96V11.725zm-45.51 3.202a.813.813 0 100-1.627.813.813 0 000 1.627zm-2.467 2.384c-.802-.195-1.237-1.165-1.355-1.626-.478-.641-1.485-1.441-1.68.488-.244 2.412 2.575 3.605 3.035 3.605 3.171.135 3.74-2.114 3.849-2.765.108-.65-.272-.542-.543-.38-1.327.95-2.303.922-3.306.678z" fill="#FFB577"/></g><mask id="mask2_123_194" style="mask-type:alpha" maskUnits="userSpaceOnUse" x="38" y="5" width="21" height="26"><path fill="#C4C4C4" d="M38.302 5.859h20.399v24.413H38.302z"/></mask><g mask="url(#mask2_123_194)" fill="#FFB577"><path fill-rule="evenodd" clip-rule="evenodd" d="M68.799 27.452c-3.156 0-5.593-.802-7.313-2.404-1.703-1.603-2.554-4.166-2.554-7.688 0-6.728 3.272-10.092 9.817-10.092 1.586 0 3.055.192 4.407.576 1.37.384 2.388.81 3.055 1.277v6.26h-6.01v-1.803c0-.634-.142-1.102-.425-1.402-.284-.3-.71-.45-1.278-.45-.567 0-.993.15-1.277.45-.284.3-.426.768-.426 1.402v7.563c0 .635.142 1.102.426 1.403.284.3.71.45 1.277.45.568 0 .994-.15 1.277-.45.284-.301.426-.768.426-1.403v-2.028h6.01v6.486c-.684.467-1.703.893-3.055 1.277-1.335.384-2.788.576-4.357.576zM2.712 22.994h1.253V11.725H2.712V7.618h10.994c2.154 0 3.798.468 4.933 1.403 1.136.918 1.703 2.412 1.703 4.482 0 2.07-.567 3.573-1.703 4.508-1.135.918-2.78 1.377-4.933 1.377h-2.73v3.606h2.404v4.107H2.713v-4.107zm9.116-7.162c.968 0 1.452-.534 1.452-1.603v-.901c0-.551-.125-.952-.375-1.202-.234-.267-.593-.4-1.077-.4h-.852v4.106h.852zm9.373 11.27v-4.108h1.252V11.725H21.2V7.618h16.903v7.563h-5.61v-3.456h-3.03v3.957h2.205v2.855h-2.204v4.457h3.03v-3.956h5.61V27.1H21.2zm19.104-4.108h-1.252v4.107h6.816c1.83-.674 1.984-4.263 1.82-6.05-.93-.153-2.976-.926-3.713-2.791-.737-1.865.56-5.384 1.301-6.91h6.26c.949 1.95 1.735 4.932 1.193 6.91-.434 1.583-2.638 2.52-3.686 2.791-.081.597-.141 2.228.271 3.984.312 1.33 1.099 1.883 1.71 2.066h7.161v-4.107h-1.177v-1.928c0-1.72-.802-2.705-2.404-2.955l-.025-.25c.834-.318 1.477-.885 1.928-1.703.45-.818.676-1.787.676-2.905 0-1.987-.568-3.423-1.703-4.308-1.135-.884-2.78-1.327-4.933-1.327H39.053v4.107h1.252v11.27zm55.632-11.269h1.252V7.618h-9.466v4.107h1.202v3.807h-3.506v-3.807h1.202V7.618h-9.466v4.107h1.252v11.27h-1.252V27.1h9.466v-4.107h-1.202v-4.132h3.506v4.132h-1.202V27.1h9.466v-4.107h-1.252V11.725zm-45.511 3.202a.813.813 0 100-1.627.813.813 0 000 1.627zM47.96 17.31c-.802-.195-1.238-1.165-1.355-1.626-.479-.641-1.485-1.441-1.68.488-.244 2.412 2.574 3.605 3.035 3.605 3.17.135 3.74-2.114 3.848-2.765.108-.65-.27-.542-.542-.38-1.328.95-2.303.922-3.306.678z"/><path d="M47.964 17.308c-.802-.195-1.237-1.165-1.355-1.626-.479-.641-1.485-1.442-1.68.488-.244 2.412 2.575 3.604 3.035 3.604 3.17.136 3.74-2.114 3.848-2.764.109-.65-.27-.542-.542-.38-1.328.949-2.303.922-3.306.678z"/></g><mask id="mask3_123_194" style="mask-type:alpha" maskUnits="userSpaceOnUse" x="59" y="5" width="19" height="26"><path fill="#C4C4C4" d="M59.46 5.859h17.903v24.413H59.46z"/></mask><g mask="url(#mask3_123_194)"><path fill-rule="evenodd" clip-rule="evenodd" d="M69.884 27.452c-3.155 0-5.593-.802-7.312-2.404-1.703-1.603-2.555-4.166-2.555-7.688 0-6.728 3.273-10.092 9.817-10.092 1.586 0 3.055.192 4.408.576 1.369.384 2.387.81 3.055 1.277v6.26h-6.01v-1.803c0-.634-.142-1.102-.426-1.402-.284-.3-.71-.45-1.277-.45-.568 0-.994.15-1.277.45-.284.3-.426.768-.426 1.402v7.563c0 .635.142 1.102.426 1.403.283.3.71.45 1.277.45s.993-.15 1.277-.45c.284-.301.426-.768.426-1.403v-2.028h6.01v6.486c-.685.467-1.703.893-3.055 1.277-1.336.384-2.788.576-4.358.576zM3.798 22.994H5.05V11.725H3.798V7.618H14.79c2.154 0 3.799.468 4.934 1.403 1.135.918 1.703 2.412 1.703 4.482 0 2.07-.568 3.573-1.703 4.508-1.135.918-2.78 1.377-4.934 1.377h-2.73v3.606h2.405v4.107H3.798v-4.107zm9.115-7.162c.969 0 1.453-.534 1.453-1.603v-.901c0-.551-.125-.952-.376-1.202-.234-.267-.592-.4-1.077-.4h-.851v4.106h.851zm9.373 11.27v-4.108h1.252V11.725h-1.252V7.618H39.19v7.563h-5.61v-3.456h-3.03v3.957h2.204v2.855H30.55v4.457h3.03v-3.956h5.61V27.1H22.286zm19.105-4.108h-1.252v4.107h6.815c1.83-.674 1.984-4.263 1.82-6.05-.93-.153-2.975-.926-3.712-2.791-.737-1.865.56-5.384 1.3-6.91h6.26c.95 1.95 1.735 4.932 1.193 6.91-.434 1.583-2.638 2.52-3.686 2.791-.08.597-.14 2.228.271 3.984.312 1.33 1.1 1.883 1.71 2.066h7.161v-4.107h-1.177v-1.928c0-1.72-.801-2.705-2.404-2.955l-.025-.25c.835-.318 1.477-.885 1.928-1.703.451-.818.676-1.787.676-2.905 0-1.987-.567-3.423-1.702-4.308-1.136-.884-2.78-1.327-4.934-1.327H40.14v4.107h1.252v11.27zm55.631-11.269h1.252V7.618h-9.466v4.107h1.202v3.807h-3.506v-3.807h1.202V7.618H78.24v4.107h1.253v11.27H78.24V27.1h9.466v-4.107h-1.202v-4.132h3.506v4.132h-1.202V27.1h9.466v-4.107h-1.252V11.725zm-45.51 3.202a.813.813 0 100-1.627.813.813 0 000 1.627zm-2.467 2.384c-.802-.195-1.237-1.165-1.355-1.626-.478-.641-1.485-1.441-1.68.488-.244 2.412 2.575 3.605 3.035 3.605 3.171.135 3.74-2.114 3.849-2.765.108-.65-.271-.542-.542-.38-1.328.95-2.304.922-3.307.678z" fill="#FFB577"/></g><mask id="mask4_123_194" style="mask-type:alpha" maskUnits="userSpaceOnUse" x="78" y="5" width="23" height="26"><path fill="#C4C4C4" d="M78.557 5.859h22.026v24.413H78.557z"/></mask><g mask="url(#mask4_123_194)"><path fill-rule="evenodd" clip-rule="evenodd" d="M70.752 27.452c-3.155 0-5.593-.802-7.312-2.404-1.703-1.603-2.555-4.166-2.555-7.688 0-6.728 3.272-10.092 9.817-10.092 1.586 0 3.055.192 4.407.576 1.37.384 2.388.81 3.056 1.277v6.26h-6.01v-1.803c0-.634-.143-1.102-.426-1.402-.284-.3-.71-.45-1.278-.45-.567 0-.993.15-1.277.45-.284.3-.425.768-.425 1.402v7.563c0 .635.141 1.102.425 1.403.284.3.71.45 1.277.45.568 0 .994-.15 1.278-.45.283-.301.425-.768.425-1.403v-2.028h6.01v6.486c-.684.467-1.702.893-3.055 1.277-1.335.384-2.788.576-4.357.576zM4.666 22.994h1.252V11.725H4.666V7.618h10.993c2.154 0 3.798.468 4.934 1.403 1.135.918 1.702 2.412 1.702 4.482 0 2.07-.567 3.573-1.703 4.508-1.135.918-2.78 1.377-4.933 1.377h-2.73v3.606h2.405v4.107H4.666v-4.107zm9.115-7.162c.968 0 1.452-.534 1.452-1.603v-.901c0-.551-.125-.952-.375-1.202-.234-.267-.593-.4-1.077-.4h-.851v4.106h.851zm9.373 11.27v-4.108h1.252V11.725h-1.252V7.618h16.903v7.563h-5.609v-3.456h-3.03v3.957h2.204v2.855h-2.204v4.457h3.03v-3.956h5.61V27.1H23.153zm19.104-4.108h-1.252v4.107h6.816c1.83-.674 1.984-4.263 1.82-6.05-.93-.153-2.976-.926-3.713-2.791-.737-1.865.56-5.384 1.301-6.91h6.26c.949 1.95 1.735 4.932 1.193 6.91-.434 1.583-2.638 2.52-3.686 2.791-.081.597-.14 2.228.271 3.984.312 1.33 1.1 1.883 1.71 2.066h7.161v-4.107h-1.177v-1.928c0-1.72-.802-2.705-2.404-2.955l-.025-.25c.834-.318 1.477-.885 1.928-1.703.45-.818.676-1.787.676-2.905 0-1.987-.568-3.423-1.703-4.308-1.135-.884-2.78-1.327-4.933-1.327H41.006v4.107h1.252v11.27zM97.89 11.725h1.252V7.618h-9.466v4.107h1.202v3.807h-3.506v-3.807h1.202V7.618h-9.466v4.107h1.252v11.27h-1.252V27.1h9.466v-4.107h-1.202v-4.132h3.506v4.132h-1.202V27.1h9.466v-4.107H97.89V11.725zm-45.51 3.202a.813.813 0 100-1.627.813.813 0 000 1.627zm-2.467 2.384c-.802-.195-1.238-1.165-1.355-1.626-.479-.641-1.485-1.441-1.68.488-.244 2.412 2.574 3.605 3.035 3.605 3.17.135 3.74-2.114 3.848-2.765.109-.65-.27-.542-.542-.38-1.328.95-2.303.922-3.306.678z" fill="url(#paint2_linear_123_194)"/></g><path d="M6.342 35.965c0 .174-.032.327-.094.457a1.008 1.008 0 01-.241.321.995.995 0 01-.323.187.996.996 0 01-.34.065 1.19 1.19 0 01-.529-.126 1.3 1.3 0 01-.461-.385 2.122 2.122 0 01-.327-.678 3.579 3.579 0 01-.121-.997c0-.259.02-.49.058-.692.04-.203.094-.382.16-.536.068-.155.148-.286.238-.394.092-.11.19-.198.296-.265a1.171 1.171 0 01.658-.198c.164 0 .305.023.423.07.12.046.218.106.296.178a.696.696 0 01.19.737.515.515 0 01-.09.17.385.385 0 01-.14.107.41.41 0 01-.17.036.454.454 0 01-.294-.109.426.426 0 01-.1-.128.416.416 0 01-.035-.176.918.918 0 01.014-.117.563.563 0 01.105-.243.457.457 0 00-.268-.114.295.295 0 00-.191.066.562.562 0 00-.144.187c-.04.079-.075.172-.102.28-.028.107-.05.225-.067.351a7.834 7.834 0 00-.044.818c0 .212.011.421.033.628.024.205.062.389.114.553.053.161.123.293.21.393a.418.418 0 00.323.148.452.452 0 00.29-.128.547.547 0 00.122-.229.78.78 0 00.028-.176.32.32 0 01-.348-.09.408.408 0 01-.11-.282.358.358 0 01.057-.214.509.509 0 01.29-.207.434.434 0 01.105-.022.44.44 0 01.07.008.48.48 0 01.227.106c.042.032.08.076.113.132a.758.758 0 01.085.209c.022.082.034.181.034.299zm5.502-1.162c0 .298-.028.577-.083.838a2.44 2.44 0 01-.246.684 1.367 1.367 0 01-.407.46.949.949 0 01-.556.168.97.97 0 01-.564-.168 1.38 1.38 0 01-.403-.46 2.5 2.5 0 01-.244-.684c-.053-.26-.08-.54-.08-.837 0-.296.026-.575.078-.835a2.4 2.4 0 01.24-.681c.107-.194.242-.346.404-.458a.968.968 0 01.57-.17.99.99 0 01.58.17c.164.112.299.264.404.458.105.193.182.42.232.68.05.261.075.54.075.835zm-.725 0c0-.23-.009-.447-.027-.65a2.794 2.794 0 00-.095-.533.946.946 0 00-.174-.36.336.336 0 00-.27-.131.331.331 0 00-.266.131.999.999 0 00-.174.36c-.044.15-.077.329-.097.533-.02.203-.03.42-.03.65 0 .233.01.452.03.656.02.203.053.38.097.533.046.151.105.271.177.36.072.088.16.132.262.132a.326.326 0 00.26-.131c.072-.09.131-.21.177-.36.046-.153.08-.33.1-.534.02-.204.03-.423.03-.656zm5.712-1.429c-.213-.02-.4-.033-.56-.039a9.005 9.005 0 00-.413-.01h-.133a.849.849 0 00-.1.005v1.097a5.517 5.517 0 00.822-.07.328.328 0 00-.003.045.448.448 0 00-.002.053v.07a4.967 4.967 0 00.027.48 6.818 6.818 0 00-.838-.059 23.212 23.212 0 00.053 1.502c.011.18.024.326.039.438a1.576 1.576 0 00-.269-.017c-.064 0-.13 0-.196.003a12.026 12.026 0 00-.362.025c.013-.125.024-.25.033-.377.011-.127.02-.251.028-.374a30.18 30.18 0 00.033-.675c.007-.235.012-.46.014-.673a30.369 30.369 0 00-.028-1.002 22.896 22.896 0 00-.02-.34 10.126 10.126 0 00-.027-.347c-.01-.117-.02-.23-.033-.34a24.324 24.324 0 001.465.025 12.306 12.306 0 00.437-.025v.05l.003.14.008.195c.006.072.013.146.022.22zm4.869 0c-.214-.02-.4-.033-.561-.039a8.997 8.997 0 00-.412-.01h-.133a.852.852 0 00-.1.005v1.097a5.517 5.517 0 00.821-.07.313.313 0 00-.002.045.448.448 0 00-.003.053v.07a4.967 4.967 0 00.028.48 6.815 6.815 0 00-.838-.059 22.763 22.763 0 00.053 1.502c.01.18.024.326.038.438a1.581 1.581 0 00-.268-.017c-.064 0-.13 0-.196.003a12.026 12.026 0 00-.362.025c.013-.125.024-.25.033-.377.011-.127.02-.251.028-.374a32.512 32.512 0 00.033-.675c.007-.235.012-.46.014-.673a29.803 29.803 0 00-.028-1.002 24.331 24.331 0 00-.02-.34 10.126 10.126 0 00-.027-.347c-.01-.117-.02-.23-.033-.34a24.324 24.324 0 001.465.025 12.306 12.306 0 00.437-.025v.05a10.03 10.03 0 00.011.335c.006.072.013.146.022.22zm4.902 3.495c-.15-.004-.288-.007-.417-.008h-.362c-.223 0-.41.001-.562.005l-.365.014c-.11.006-.198.011-.262.017.013-.125.024-.25.033-.377a30.238 30.238 0 00.06-1.05c.008-.234.013-.458.014-.672a29.24 29.24 0 00-.027-1.002 22.912 22.912 0 00-.02-.34 10.126 10.126 0 00-.027-.347c-.01-.117-.02-.23-.033-.34a24.308 24.308 0 001.465.025 12.34 12.34 0 00.437-.025v.05a10.82 10.82 0 00.011.335c.005.072.013.146.022.22-.214-.02-.4-.033-.561-.039a9 9 0 00-.412-.01h-.127a.849.849 0 00-.1.005 72.856 72.856 0 00-.01 1.097c.128-.004.243-.009.345-.014a4.775 4.775 0 00.48-.056.313.313 0 00-.002.045.446.446 0 00-.003.053v.07a4.985 4.985 0 00.028.48 6.976 6.976 0 00-.849-.059 42.228 42.228 0 00.017 1.214c.003.082.007.15.01.204a6.284 6.284 0 001.11-.117c.053-.014.08-.022.08-.026a.161.161 0 00-.003.031.198.198 0 00-.003.036v.053a4.357 4.357 0 00.033.527zm4.968 0a22.138 22.138 0 00-.417-.008h-.362c-.223 0-.41.001-.561.005l-.365.014c-.11.006-.198.011-.263.017.013-.125.024-.25.033-.377.011-.127.02-.251.028-.374a32.512 32.512 0 00.033-.675c.007-.235.012-.46.014-.673a29.803 29.803 0 00-.028-1.002 24.331 24.331 0 00-.019-.34 10.133 10.133 0 00-.028-.347 8.35 8.35 0 00-.033-.34 24.324 24.324 0 001.465.025 12.34 12.34 0 00.437-.025v.05l.003.14.008.195c.006.072.013.146.023.22-.214-.02-.401-.033-.562-.039a8.997 8.997 0 00-.412-.01h-.127a.849.849 0 00-.1.005 72.856 72.856 0 00-.01 1.097c.128-.004.244-.009.345-.014a4.775 4.775 0 00.481-.056.313.313 0 00-.003.045.446.446 0 00-.002.053v.07a4.985 4.985 0 00.027.48 6.976 6.976 0 00-.849-.059 42.228 42.228 0 00.017 1.214l.011.204a6.281 6.281 0 001.109-.117c.053-.014.08-.022.08-.026a.161.161 0 00-.003.031.198.198 0 00-.002.036v.053a4.309 4.309 0 00.033.527zm6.968-.396c0-.144-.004-.287-.01-.43a34.4 34.4 0 00-.02-.43l-.022-.435a11.946 11.946 0 01-.009-.447c0-.158.005-.318.014-.48.011-.164.031-.321.06-.472.03-.152.071-.295.123-.427.051-.134.118-.25.201-.349a.905.905 0 01.727-.32c.155 0 .29.024.404.075a.831.831 0 01.29.2c.082.086.147.187.197.302.051.115.091.24.119.374.03.134.05.273.06.419a5.67 5.67 0 01.012.622 20.427 20.427 0 01-.028.553 743.672 743.672 0 01-.033.926c-.008.207-.015.449-.022.726l-.827-.03c.031-.213.059-.425.083-.637.026-.214.047-.413.063-.597a5.044 5.044 0 00-.718-.006 26.268 26.268 0 00.074.96c.011.106.024.208.039.304l-.782.023c.003-.069.005-.139.005-.21v-.214zm.63-1.452c.056.004.11.006.164.006h.157c.197 0 .356-.006.476-.017l.033-.4c.013-.133.02-.276.02-.429 0-.322-.034-.566-.1-.734-.065-.17-.16-.254-.288-.254a.292.292 0 00-.193.075.613.613 0 00-.155.235 1.85 1.85 0 00-.102.396 3.89 3.89 0 00-.036.567 5.827 5.827 0 00.025.555zm7.065-2.314c-.01.151-.018.308-.025.472l-.017.488-.01.483-.006.447-.003.382v.639c0 .127 0 .257.003.391l.005.405c.004.134.008.26.014.38a4.71 4.71 0 00-.219-.006h-.177c-.095 0-.175 0-.237.003a2.199 2.199 0 00-.252.02 7.186 7.186 0 00-.102-.477 26.449 26.449 0 00-.205-.807 27.992 27.992 0 00-.249-.902c-.04-.147-.08-.286-.121-.416a16.53 16.53 0 00-.108-.355 25.995 25.995 0 00-.05 1.19c-.005.174-.008.335-.008.48a14.121 14.121 0 00.028.804c.01.152.026.307.047.465a9.402 9.402 0 00-.352-.008l-.215-.003h-.136a220.192 220.192 0 00.033-1.431c.004-.159.006-.285.006-.38a12.796 12.796 0 000-.371v-.11c0-.092 0-.203-.003-.331a16.455 16.455 0 00-.022-.877 12.05 12.05 0 00-.03-.474 15.856 15.856 0 00.755-.017c.084-.005.15-.011.196-.017.009.06.027.153.055.28l.102.44a134.26 134.26 0 00.288 1.125c.053.196.107.386.16.572.054.185.104.351.152.5a22.574 22.574 0 00.03-.946c.004-.143.006-.268.006-.374v-.223a23.898 23.898 0 00-.02-.735 10.228 10.228 0 00-.013-.234 4.653 4.653 0 00-.017-.234 5.907 5.907 0 00-.019-.215l.736-.023zm5.499 2.183c0 .303-.029.566-.086.787-.055.22-.127.408-.215.564a1.458 1.458 0 01-.63.6c-.111.054-.216.09-.313.109a1.22 1.22 0 01-.34.028 3.099 3.099 0 01-.186-.014 3.144 3.144 0 01-.542-.084l.006-.957a163.17 163.17 0 00.014-1.192l.003-.34c.002-.096.002-.176.002-.243a18.925 18.925 0 000-.516 8.762 8.762 0 00-.033-.607 1.876 1.876 0 00-.036-.228c.144-.01.275-.015.393-.017.12-.004.223-.006.31-.006.217 0 .409.027.575.081.165.052.31.126.43.22.124.094.227.206.308.338.083.13.15.274.199.43a2.5 2.5 0 01.108.503c.022.177.033.358.033.544zm-.719-.087c0-.329-.016-.597-.047-.803a1.336 1.336 0 00-.147-.486.509.509 0 00-.262-.235 1.05 1.05 0 00-.39-.064h-.083l.033 3.28a.52.52 0 00.102.03.873.873 0 00.097.006.557.557 0 00.316-.086.624.624 0 00.215-.29c.057-.136.099-.314.124-.534.028-.221.042-.494.042-.818zm10.863-1.97a31.892 31.892 0 01.089 2.205c0 .262-.017.512-.05.748a2.525 2.525 0 01-.163.625 1.13 1.13 0 01-.299.43.676.676 0 01-.614.137.767.767 0 01-.312-.156.882.882 0 01-.282-.428.882.882 0 01-.478.492.946.946 0 01-.327.067.507.507 0 01-.284-.079.656.656 0 01-.2-.209 1.248 1.248 0 01-.127-.318 3.365 3.365 0 01-.074-.396 5.622 5.622 0 01-.034-.45 19.813 19.813 0 01-.002-.89l.005-.41.011-.38.014-.34c.01-.246.02-.478.033-.696l.81.023a15.322 15.322 0 00-.157 1.379c-.008.126-.014.257-.02.393a9.622 9.622 0 00-.008.402v.31l.008.304c.006.097.013.188.023.274.009.083.022.158.038.223a.52.52 0 00.067.15.125.125 0 00.102.054c.039 0 .074-.024.108-.073a.698.698 0 00.09-.19 3.444 3.444 0 00.124-.57 4.534 4.534 0 00.048-.627v-.12c.002-.05.003-.11.003-.181 0-.142-.002-.333-.005-.573l-.017-.907.702.028-.041.765-.028.527-.017.338c-.001.084-.003.15-.005.201v.182c0 .08.003.166.008.26.008.09.018.181.03.273.015.09.033.18.053.265.022.083.046.158.072.223a.622.622 0 00.091.154c.035.039.073.058.114.058.062 0 .112-.035.149-.106a.884.884 0 00.086-.287c.02-.123.033-.264.038-.425a15.148 15.148 0 00-.01-1.292 12.02 12.02 0 00-.045-.633 8.824 8.824 0 00-.058-.475 6.472 6.472 0 00-.047-.299l.788.02zm3.998 4l-.73.075c.004-.125.006-.254.008-.388l.009-.405.005-.393.003-.369.003-.8a78.046 78.046 0 00-.008-.682 17.896 17.896 0 00-.009-.287 15.574 15.574 0 00-.022-.559 3.41 3.41 0 00-.017-.228l.697-.034-.01.357-.006.363-.006.346v.313c0 .486.006.949.017 1.39.012.44.035.873.066 1.3zm5.549-4.126c-.01.151-.017.308-.025.472l-.016.488-.011.483a514.302 514.302 0 01-.009.83v.637l.003.391.006.405c.003.134.008.26.013.38a4.71 4.71 0 00-.218-.006h-.177c-.096 0-.175 0-.238.003a2.198 2.198 0 00-.251.02 7.186 7.186 0 00-.102-.477 26.449 26.449 0 00-.205-.807 27.992 27.992 0 00-.25-.902c-.04-.147-.08-.286-.12-.416-.04-.132-.075-.25-.109-.355a25.995 25.995 0 00-.05 1.19c-.005.174-.008.335-.008.48a14.151 14.151 0 00.028.804c.011.152.027.307.047.465a9.411 9.411 0 00-.351-.008l-.216-.003h-.135a220.192 220.192 0 00.033-1.431c.004-.159.005-.285.005-.38a11.91 11.91 0 000-.371v-.11c0-.092 0-.203-.002-.331a16.477 16.477 0 00-.022-.877c-.008-.16-.018-.318-.03-.474a15.852 15.852 0 00.754-.017c.085-.005.15-.011.196-.017.01.06.028.153.056.28l.102.44c.04.166.086.346.135.54l.152.585.16.572c.054.185.105.351.153.5a23.346 23.346 0 00.03-.946c.004-.143.006-.268.006-.374v-.223a22.641 22.641 0 00-.034-.969 4.653 4.653 0 00-.016-.234 5.691 5.691 0 00-.02-.215l.736-.023zm5.101 4.162c-.15-.004-.288-.007-.417-.008h-.362c-.224 0-.41.001-.562.005l-.365.014c-.11.006-.198.011-.262.017.013-.125.024-.25.033-.377.01-.127.02-.251.027-.374a30.238 30.238 0 00.034-.675c.007-.235.012-.46.013-.673a29.24 29.24 0 00-.027-1.002 22.912 22.912 0 00-.02-.34 10.126 10.126 0 00-.027-.347c-.01-.117-.02-.23-.033-.34a24.308 24.308 0 001.465.025 12.321 12.321 0 00.437-.025v.05a4.68 4.68 0 00.033.555c-.214-.02-.4-.033-.561-.039a9.004 9.004 0 00-.412-.01h-.127a.852.852 0 00-.1.005 83.604 83.604 0 00-.011 1.097c.129-.004.244-.009.346-.014a4.775 4.775 0 00.48-.056.313.313 0 00-.002.045.426.426 0 00-.003.053v.07a4.985 4.985 0 00.028.48 6.98 6.98 0 00-.849-.059 44.491 44.491 0 00.017 1.214c.003.082.007.15.01.204a6.284 6.284 0 001.11-.117c.053-.014.08-.022.08-.026a.154.154 0 00-.003.031.198.198 0 00-.003.036v.053a4.357 4.357 0 00.033.527zm9.296-1.167a1.43 1.43 0 01-.097.475 1.114 1.114 0 01-.503.57 1.761 1.761 0 01-.65.203c-.105.013-.198.02-.28.02-.156 0-.303-.005-.442-.015a4.004 4.004 0 01-.4-.047c.01-.117.02-.246.027-.385a17.55 17.55 0 00.03-.862 236.14 236.14 0 01.009-.704v-.193a48.603 48.603 0 00-.028-1.418 14.42 14.42 0 00-.022-.55 3.87 3.87 0 01.354-.024c.063-.004.123-.006.182-.006a3.766 3.766 0 01.796.047c.2.034.373.092.52.174.15.08.267.186.352.32.086.133.13.298.13.497a.967.967 0 01-.172.483.721.721 0 01-.119.134 1.007 1.007 0 01-.39.212.827.827 0 01.5.355.87.87 0 01.12.237c.027.082.047.157.058.226a1.248 1.248 0 01.025.251zm-.777.028a1.346 1.346 0 00-.078-.421.924.924 0 00-.077-.154.53.53 0 00-.479-.27.786.786 0 00-.135.01l-.022 1.578c.055.01.11.016.163.016.077 0 .145-.01.202-.03a.57.57 0 00.155-.087.746.746 0 00.188-.262 1.12 1.12 0 00.083-.38zm-.011-1.942a.68.68 0 00-.078-.28.522.522 0 00-.177-.192.566.566 0 00-.146-.064.672.672 0 00-.194-.026 1.31 1.31 0 00-.196.017l.033 1.184h.06a.686.686 0 00.487-.16.528.528 0 00.12-.15.72.72 0 00.09-.33zm3.887 2.685c0-.144-.004-.287-.011-.43a634.354 634.354 0 00-.041-.865 11.946 11.946 0 01-.009-.447c0-.158.005-.318.014-.48.011-.164.031-.321.06-.472.03-.152.07-.295.122-.427.052-.134.12-.25.202-.349a.904.904 0 01.727-.32c.155 0 .29.024.404.075a.831.831 0 01.29.2c.081.086.147.187.197.302a1.8 1.8 0 01.119.374c.029.134.05.273.06.419a5.721 5.721 0 01.011.622 21.099 21.099 0 01-.028.553l-.013.385-.02.541-.022.726-.826-.03c.031-.213.059-.425.083-.637.026-.214.047-.413.063-.597a5.044 5.044 0 00-.719-.006 26.35 26.35 0 00.075.96c.011.106.024.208.039.304l-.783.023c.004-.069.006-.139.006-.21v-.214zm.63-1.452c.056.004.11.006.163.006h.158c.197 0 .356-.006.476-.017l.033-.4c.013-.133.02-.276.02-.429 0-.322-.034-.566-.1-.734-.065-.17-.16-.254-.288-.254a.292.292 0 00-.194.075.612.612 0 00-.154.235 1.85 1.85 0 00-.103.396c-.024.16-.036.35-.036.567 0 .076.002.158.006.245l.02.31zm6.324 1.834a.615.615 0 01-.089-.181 1.698 1.698 0 01-.058-.35v-.08a3.16 3.16 0 00-.039-.47 1.63 1.63 0 00-.072-.262.79.79 0 00-.124-.234.573.573 0 00-.558-.223v1.739l-.764.016a6.033 6.033 0 00.05-.51 14.652 14.652 0 00.022-.631l.003-.302a13.873 13.873 0 000-.527 41.485 41.485 0 00-.014-.843 32.162 32.162 0 00-.033-1.136c.101-.02.21-.035.326-.045a8.147 8.147 0 01.67-.036c.184-.008.357.008.52.047.161.038.303.102.425.193a.96.96 0 01.293.349c.074.141.112.31.116.508a1.431 1.431 0 01-.24.544 1.035 1.035 0 01-.304.276.94.94 0 01-.216.09.984.984 0 01.287.164.718.718 0 01.175.21.864.864 0 01.09.248c.021.088.035.18.042.28.01.096.017.197.022.3.006.103.016.207.03.313a1.812 1.812 0 00.13.421c.032.064.07.116.114.157l-.805-.025zm-.028-2.942a.704.704 0 00-.078-.32.68.68 0 00-.085-.118.478.478 0 00-.127-.103.696.696 0 00-.183-.073 1.04 1.04 0 00-.484.003l.011 1.261c.034.006.067.01.1.014l.091.003c.088 0 .167-.01.235-.028a.688.688 0 00.313-.181.728.728 0 00.093-.123.868.868 0 00.114-.335z" fill="#FFB577"/><defs><linearGradient id="paint0_linear_123_194" x1="10.742" y1="4.497" x2="10.742" y2="11.225" gradientUnits="userSpaceOnUse"><stop stop-color="#F2E7DF"/></linearGradient><linearGradient id="paint1_linear_123_194" x1="9.11" y1="-.217" x2="9.11" y2="10.384" gradientUnits="userSpaceOnUse"><stop stop-color="#F2E7DF"/></linearGradient><linearGradient id="paint2_linear_123_194" x1="4.666" y1="7.292" x2="103.206" y2="31.081" gradientUnits="userSpaceOnUse"><stop stop-color="#FFC492" stop-opacity=".47"/><stop offset=".261" stop-color="#FFB577"/></linearGradient></defs></svg>