<svg width="101" height="37" viewBox="0 0 101 37" fill="none" xmlns="http://www.w3.org/2000/svg">
<mask id="mask0_123_194" style="mask-type:alpha" maskUnits="userSpaceOnUse" x="0" y="0" width="20" height="31">
<rect width="19.0968" height="30.2727" fill="#C4C4C4"/>
</mask>
<g mask="url(#mask0_123_194)">
<path fill-rule="evenodd" clip-rule="evenodd" d="M66.8457 27.4518C63.6903 27.4518 61.2529 26.6504 59.5333 25.0477C57.8304 23.445 56.979 20.8823 56.979 17.3597C56.979 10.6316 60.2512 7.26758 66.7956 7.26758C68.3816 7.26758 69.8508 7.45957 71.2031 7.84355C72.572 8.22754 73.5904 8.65326 74.2582 9.12072V15.3813H68.2481V13.5783C68.2481 12.9439 68.1061 12.4764 67.8223 12.1759C67.5385 11.8754 67.1128 11.7251 66.5452 11.7251C65.9775 11.7251 65.5518 11.8754 65.268 12.1759C64.9842 12.4764 64.8423 12.9439 64.8423 13.5783V21.1411C64.8423 21.7755 64.9842 22.243 65.268 22.5435C65.5518 22.844 65.9775 22.9942 66.5452 22.9942C67.1128 22.9942 67.5385 22.844 67.8223 22.5435C68.1061 22.243 68.2481 21.7755 68.2481 21.1411V19.1127H74.2582V25.5986C73.5737 26.0661 72.5554 26.4918 71.2031 26.8758C69.8675 27.2598 68.415 27.4518 66.8457 27.4518ZM0.759277 22.9942H2.0114V11.7251H0.759277V7.61817H11.7529C13.9066 7.61817 15.551 8.08563 16.6863 9.02055C17.8215 9.93877 18.3892 11.433 18.3892 13.5031C18.3892 15.5733 17.8215 17.0759 16.6863 18.0108C15.551 18.929 13.9066 19.3881 11.7529 19.3881H9.02328V22.9942H11.4274V27.1012H0.759277V22.9942ZM9.87472 15.8321C10.843 15.8321 11.3272 15.2979 11.3272 14.2294V13.3279C11.3272 12.7769 11.202 12.3762 10.9515 12.1258C10.7178 11.8587 10.3589 11.7251 9.87472 11.7251H9.02328V15.8321H9.87472ZM19.2476 27.1012V22.9942H20.4998V11.7251H19.2476V7.61817H36.1513V15.181H30.5418V11.7251H27.5116V15.6818H29.7154V18.5367H27.5116V22.9942H30.5418V19.0375H36.1513V27.1012H19.2476ZM38.3523 22.9942H37.1002V27.1012H43.9153C45.7455 26.4265 45.8998 22.8381 45.7358 21.0513C44.8054 20.8977 42.7602 20.1244 42.0231 18.26C41.286 16.3955 42.5832 12.8761 43.3239 11.3494H49.5841C50.5326 13.3006 51.3185 16.2816 50.7765 18.26C50.3429 19.8426 48.1387 20.7803 47.0908 21.0513C47.0095 21.6475 46.9499 23.2789 47.3618 25.035C47.6737 26.3645 48.4608 26.9184 49.0718 27.1012H50.2306H56.2326V22.9942H55.0556V21.066C55.0556 19.3464 54.2542 18.3614 52.6515 18.111L52.6265 17.8605C53.4612 17.5433 54.104 16.9757 54.5547 16.1576C55.0055 15.3396 55.2309 14.3713 55.2309 13.2527C55.2309 11.266 54.6632 9.83025 53.528 8.94542C52.3927 8.06059 50.7483 7.61817 48.5946 7.61817H37.1002V11.7251H38.3523V22.9942ZM93.9836 11.7251H95.2358V7.61817H85.7697V11.7251H86.9718V15.5316H83.4658V11.7251H84.6679V7.61817H75.2018V11.7251H76.454V22.9942H75.2018V27.1012H84.6679V22.9942H83.4658V18.8622H86.9718V22.9942H85.7697V27.1012H95.2358V22.9942H93.9836V11.7251ZM48.4728 14.9265C48.9218 14.9265 49.2858 14.5625 49.2858 14.1135C49.2858 13.6645 48.9218 13.3005 48.4728 13.3005C48.0238 13.3005 47.6598 13.6645 47.6598 14.1135C47.6598 14.5625 48.0238 14.9265 48.4728 14.9265ZM46.0068 17.3114C45.2046 17.1162 44.7692 16.146 44.6517 15.6853C44.173 15.044 43.1666 14.2436 42.9715 16.1731C42.7276 18.5851 45.546 19.7775 46.0068 19.7775C49.1775 19.913 49.7466 17.6637 49.855 17.0133C49.9634 16.3628 49.584 16.4712 49.313 16.6338C47.9851 17.5824 47.0095 17.5553 46.0068 17.3114Z" fill="#FFB577"/>
<path d="M9.50131 8.46978C9.23704 9.14249 10.0519 9.70107 10.4923 9.89627C10.3122 8.9653 11.3482 8.15445 11.8438 7.47875C12.3393 6.80304 11.8137 6.30753 10.8677 5.87207C11.153 7.17843 9.83166 7.6289 9.50131 8.46978Z" fill="#2D2D2B"/>
<path fill-rule="evenodd" clip-rule="evenodd" d="M11.5512 11.2252L10.1743 10.615C9.8884 10.4883 9.47232 10.2438 9.15142 9.89102C8.82964 9.53731 8.48084 8.9178 8.76993 8.18193C8.90632 7.83477 9.13014 7.56294 9.31527 7.36105C9.39763 7.27123 9.48447 7.18268 9.56113 7.10452C9.57189 7.09355 9.58244 7.08279 9.59275 7.07226C9.68098 6.98216 9.75701 6.90344 9.82612 6.82507C10.0839 6.53277 10.1662 6.34274 10.1 6.03958L9.76319 4.49731L11.1972 5.1574C11.6835 5.38127 12.2203 5.68471 12.5369 6.12792C12.7113 6.37217 12.8333 6.6788 12.8198 7.03343C12.8066 7.38016 12.6673 7.68615 12.4785 7.94353C12.3369 8.13663 12.1639 8.33235 12.0135 8.50239C12.005 8.51205 11.9965 8.52162 11.9881 8.53111C11.8215 8.71967 11.6734 8.88895 11.5476 9.05911C11.2806 9.42007 11.2405 9.61968 11.265 9.74654L11.5512 11.2252ZM10.4929 9.89598C10.4377 9.61081 10.4967 9.33692 10.6192 9.07472C10.8001 8.68769 11.1197 8.32615 11.4155 7.9915C11.5735 7.81275 11.7247 7.64166 11.8444 7.47846C12.1636 7.04309 12.059 6.68253 11.6912 6.36463C11.4881 6.18915 11.2048 6.02667 10.8683 5.87178C10.941 6.20437 10.9095 6.48149 10.8167 6.72369C10.6761 7.09066 10.3949 7.37749 10.1221 7.65571C9.86774 7.91512 9.62072 8.16706 9.50191 8.46949C9.37345 8.79646 9.49994 9.09647 9.71447 9.3409C9.9413 9.59935 10.2666 9.79566 10.4929 9.89598Z" fill="url(#paint0_linear_123_194)"/>
<path d="M6.67509 6.25572C6.15603 7.57603 7.75646 8.67235 8.62156 9.05548C8.26765 7.22827 10.3026 5.63683 11.2758 4.31063C12.2491 2.98443 11.2169 2.01189 9.35886 1.15723C9.9192 3.72121 7.32391 4.60534 6.67509 6.25572Z" fill="#2D2D2B"/>
<path fill-rule="evenodd" clip-rule="evenodd" d="M9.67959 10.3841L8.3027 9.77435C7.80452 9.55372 7.08588 9.12784 6.54733 8.53626C6.00793 7.94376 5.52608 7.02774 5.94279 5.96779C6.15885 5.41821 6.52207 4.96748 6.86711 4.59147C7.01961 4.42529 7.18054 4.26129 7.33194 4.107C7.35318 4.08536 7.37422 4.06392 7.39503 4.04269C7.56861 3.86554 7.73025 3.69862 7.88033 3.52854C8.46198 2.86938 8.79378 2.25664 8.59016 1.32494L8.25317 -0.217041L9.68711 0.44256C10.6294 0.876009 11.5209 1.40345 12.0184 2.09959C12.2834 2.47031 12.4525 2.91073 12.4336 3.40828C12.415 3.89789 12.2177 4.35573 11.9095 4.77572C11.6525 5.12581 11.3339 5.48597 11.0323 5.82695C11.018 5.84312 11.0037 5.85925 10.9895 5.87533C10.6647 6.24255 10.3525 6.59839 10.0828 6.9628C9.52809 7.71231 9.28192 8.331 9.39324 8.90573L9.67959 10.3841ZM8.62116 9.05528C8.56326 8.75633 8.5693 8.46369 8.62418 8.17749C8.8237 7.13691 9.66877 6.18148 10.4331 5.31738C10.7434 4.96653 11.0404 4.63075 11.2754 4.31043C12.0861 3.20578 11.5054 2.34649 10.215 1.59631C9.95617 1.44586 9.66884 1.2998 9.35846 1.15703C9.43021 1.48536 9.45022 1.78615 9.4292 2.06453C9.34509 3.17814 8.60432 3.93313 7.89278 4.65831C7.39321 5.16747 6.90805 5.66193 6.67469 6.25552C6.29938 7.21019 7.03218 8.04775 7.79388 8.58327C8.08561 8.78838 8.38158 8.94918 8.62116 9.05528Z" fill="url(#paint1_linear_123_194)"/>
<path fill-rule="evenodd" clip-rule="evenodd" d="M5.64258 12.9744V10.3167H13.4357V11.0825C14.5203 11.1867 14.9603 11.9646 15.1279 12.6113C15.2475 13.0729 15.2124 13.571 15.0096 14.0026C14.3838 15.3345 12.8883 15.2395 12.5348 15.1217C11.3936 16.368 10.1623 16.5331 9.38148 16.5331C6.70269 16.425 5.77271 14.1156 5.64258 12.9744ZM6.8288 10.9924H6.46843C6.46843 12.6417 6.46843 13.0536 6.57195 13.4375C6.6064 13.5652 6.65232 13.6899 6.71351 13.856C6.72624 13.8906 6.73964 13.9269 6.75372 13.9655C7.03902 14.7463 8.30034 15.5271 9.09617 15.5271C8.03006 15.2718 7.54956 14.5811 7.12912 13.9655C6.79277 13.473 6.78876 11.7782 6.8288 10.9924ZM13.4507 11.9083C13.4707 12.4438 13.4176 13.6861 13.0452 14.3709C13.8861 14.2207 14.1564 13.8603 14.2615 13.0945C14.3456 12.4819 13.756 12.0484 13.4507 11.9083Z" fill="#2D2D2B"/>
</g>
<mask id="mask1_123_194" style="mask-type:alpha" maskUnits="userSpaceOnUse" x="19" y="5" width="19" height="26">
<rect x="19.4219" y="5.85938" width="17.9032" height="24.4135" fill="#C4C4C4"/>
</mask>
<g mask="url(#mask1_123_194)">
<path fill-rule="evenodd" clip-rule="evenodd" d="M67.8222 27.4518C64.6669 27.4518 62.2294 26.6504 60.5098 25.0477C58.807 23.445 57.9555 20.8823 57.9555 17.3597C57.9555 10.6316 61.2277 7.26758 67.7722 7.26758C69.3582 7.26758 70.8273 7.45957 72.1796 7.84355C73.5486 8.22754 74.567 8.65326 75.2348 9.12072V15.3813H69.2246V13.5783C69.2246 12.9439 69.0827 12.4764 68.7989 12.1759C68.5151 11.8754 68.0894 11.7251 67.5217 11.7251C66.9541 11.7251 66.5284 11.8754 66.2446 12.1759C65.9608 12.4764 65.8188 12.9439 65.8188 13.5783V21.1411C65.8188 21.7755 65.9608 22.243 66.2446 22.5435C66.5284 22.844 66.9541 22.9942 67.5217 22.9942C68.0894 22.9942 68.5151 22.844 68.7989 22.5435C69.0827 22.243 69.2246 21.7755 69.2246 21.1411V19.1127H75.2348V25.5986C74.5503 26.0661 73.5319 26.4918 72.1796 26.8758C70.844 27.2598 69.3916 27.4518 67.8222 27.4518ZM1.73584 22.9942H2.98796V11.7251H1.73584V7.61817H12.7295C14.8831 7.61817 16.5276 8.08563 17.6628 9.02055C18.7981 9.93877 19.3657 11.433 19.3657 13.5031C19.3657 15.5733 18.7981 17.0759 17.6628 18.0108C16.5276 18.929 14.8831 19.3881 12.7295 19.3881H9.99984V22.9942H12.4039V27.1012H1.73584V22.9942ZM10.8513 15.8321C11.8196 15.8321 12.3037 15.2979 12.3037 14.2294V13.3279C12.3037 12.7769 12.1785 12.3762 11.9281 12.1258C11.6944 11.8587 11.3354 11.7251 10.8513 11.7251H9.99984V15.8321H10.8513ZM20.2242 27.1012V22.9942H21.4763V11.7251H20.2242V7.61817H37.1278V15.181H31.5183V11.7251H28.4882V15.6818H30.6919V18.5367H28.4882V22.9942H31.5183V19.0375H37.1278V27.1012H20.2242ZM39.3288 22.9942H38.0767V27.1012H44.8919C46.722 26.4265 46.8764 22.8381 46.7124 21.0513C45.782 20.8977 43.7368 20.1245 42.9997 18.26C42.2626 16.3955 43.5597 12.8761 44.3005 11.3494H50.5606C51.5091 13.3006 52.295 16.2816 51.753 18.26C51.3194 19.8426 49.1153 20.7803 48.0674 21.0513C47.9861 21.6475 47.9265 23.2789 48.3384 25.035C48.6503 26.3645 49.4374 26.9184 50.0484 27.1012H51.2072H57.2091V22.9942H56.0321V21.066C56.0321 19.3464 55.2308 18.3614 53.6281 18.111L53.603 17.8605C54.4378 17.5433 55.0805 16.9757 55.5313 16.1576C55.9821 15.3396 56.2074 14.3713 56.2074 13.2527C56.2074 11.266 55.6398 9.83025 54.5046 8.94542C53.3693 8.06059 51.7248 7.61817 49.5712 7.61817H38.0767V11.7251H39.3288V22.9942ZM94.9602 11.7251H96.2123V7.61817H86.7463V11.7251H87.9483V15.5316H84.4424V11.7251H85.6444V7.61817H76.1784V11.7251H77.4305V22.9942H76.1784V27.1012H85.6444V22.9942H84.4424V18.8622H87.9483V22.9942H86.7463V27.1012H96.2123V22.9942H94.9602V11.7251ZM49.4494 14.9265C49.8984 14.9265 50.2624 14.5625 50.2624 14.1135C50.2624 13.6645 49.8984 13.3005 49.4494 13.3005C49.0004 13.3005 48.6364 13.6645 48.6364 14.1135C48.6364 14.5625 49.0004 14.9265 49.4494 14.9265ZM46.9833 17.3114C46.1811 17.1162 45.7457 16.146 45.6283 15.6853C45.1495 15.044 44.1432 14.2436 43.9481 16.1731C43.7042 18.5851 46.5226 19.7775 46.9833 19.7775C50.154 19.913 50.7231 17.6637 50.8315 17.0133C50.9399 16.3628 50.5605 16.4712 50.2895 16.6338C48.9616 17.5824 47.986 17.5553 46.9833 17.3114Z" fill="#FFB577"/>
</g>
<mask id="mask2_123_194" style="mask-type:alpha" maskUnits="userSpaceOnUse" x="38" y="5" width="21" height="26">
<rect x="38.3018" y="5.85938" width="20.3988" height="24.4135" fill="#C4C4C4"/>
</mask>
<g mask="url(#mask2_123_194)">
<path fill-rule="evenodd" clip-rule="evenodd" d="M68.7988 27.4518C65.6435 27.4518 63.206 26.6504 61.4864 25.0477C59.7835 23.445 58.9321 20.8823 58.9321 17.3597C58.9321 10.6316 62.2043 7.26758 68.7487 7.26758C70.3347 7.26758 71.8039 7.45957 73.1562 7.84355C74.5252 8.22754 75.5436 8.65326 76.2114 9.12072V15.3813H70.2012V13.5783C70.2012 12.9439 70.0593 12.4764 69.7755 12.1759C69.4916 11.8754 69.0659 11.7251 68.4983 11.7251C67.9307 11.7251 67.5049 11.8754 67.2211 12.1759C66.9373 12.4764 66.7954 12.9439 66.7954 13.5783V21.1411C66.7954 21.7755 66.9373 22.243 67.2211 22.5435C67.5049 22.844 67.9307 22.9942 68.4983 22.9942C69.0659 22.9942 69.4916 22.844 69.7755 22.5435C70.0593 22.243 70.2012 21.7755 70.2012 21.1411V19.1127H76.2114V25.5986C75.5269 26.0661 74.5085 26.4918 73.1562 26.8758C71.8206 27.2598 70.3681 27.4518 68.7988 27.4518ZM2.7124 22.9942H3.96452V11.7251H2.7124V7.61817H13.706C15.8597 7.61817 17.5041 8.08563 18.6394 9.02055C19.7746 9.93877 20.3423 11.433 20.3423 13.5031C20.3423 15.5733 19.7746 17.0759 18.6394 18.0108C17.5041 18.929 15.8597 19.3881 13.706 19.3881H10.9764V22.9942H13.3805V27.1012H2.7124V22.9942ZM11.8278 15.8321C12.7962 15.8321 13.2803 15.2979 13.2803 14.2294V13.3279C13.2803 12.7769 13.1551 12.3762 12.9047 12.1258C12.6709 11.8587 12.312 11.7251 11.8278 11.7251H10.9764V15.8321H11.8278ZM21.2008 27.1012V22.9942H22.4529V11.7251H21.2008V7.61817H38.1044V15.181H32.4949V11.7251H29.4648V15.6818H31.6685V18.5367H29.4648V22.9942H32.4949V19.0375H38.1044V27.1012H21.2008ZM40.3054 22.9942H39.0533V27.1012H45.8685C47.6986 26.4265 47.853 22.8381 47.689 21.0513C46.7585 20.8977 44.7134 20.1245 43.9762 18.26C43.2391 16.3955 44.5363 12.8761 45.2771 11.3494H51.5372C52.4857 13.3006 53.2716 16.2816 52.7296 18.26C52.296 19.8426 50.0918 20.7803 49.044 21.0513C48.9627 21.6475 48.903 23.2789 49.315 25.035C49.6268 26.3645 50.414 26.9184 51.025 27.1012H52.1837H58.1857V22.9942H57.0087V21.066C57.0087 19.3464 56.2074 18.3614 54.6046 18.111L54.5796 17.8605C55.4143 17.5433 56.0571 16.9757 56.5079 16.1576C56.9586 15.3396 57.184 14.3713 57.184 13.2527C57.184 11.266 56.6164 9.83025 55.4811 8.94542C54.3459 8.06059 52.7014 7.61817 50.5478 7.61817H39.0533V11.7251H40.3054V22.9942ZM95.9368 11.7251H97.1889V7.61817H87.7229V11.7251H88.9249V15.5316H85.419V11.7251H86.621V7.61817H77.155V11.7251H78.4071V22.9942H77.155V27.1012H86.621V22.9942H85.419V18.8622H88.9249V22.9942H87.7229V27.1012H97.1889V22.9942H95.9368V11.7251ZM50.426 14.9265C50.875 14.9265 51.239 14.5625 51.239 14.1135C51.239 13.6645 50.875 13.3005 50.426 13.3005C49.9769 13.3005 49.613 13.6645 49.613 14.1135C49.613 14.5625 49.9769 14.9265 50.426 14.9265ZM47.9599 17.3114C47.1577 17.1162 46.7223 16.146 46.6049 15.6853C46.1261 15.044 45.1198 14.2436 44.9247 16.1731C44.6808 18.5851 47.4992 19.7775 47.9599 19.7775C51.1306 19.913 51.6997 17.6637 51.8081 17.0133C51.9165 16.3628 51.5371 16.4712 51.2661 16.6338C49.9382 17.5824 48.9626 17.5553 47.9599 17.3114Z" fill="#FFB577"/>
<path d="M47.9642 17.3079C47.162 17.1128 46.7266 16.1426 46.6092 15.6819C46.1304 15.0406 45.1241 14.2402 44.929 16.1697C44.6851 18.5816 47.5035 19.7741 47.9642 19.7741C51.1349 19.9096 51.704 17.6602 51.8124 17.0098C51.9208 16.3594 51.5414 16.4678 51.2704 16.6304C49.9425 17.5789 48.9669 17.5518 47.9642 17.3079Z" fill="#FFB577"/>
</g>
<mask id="mask3_123_194" style="mask-type:alpha" maskUnits="userSpaceOnUse" x="59" y="5" width="19" height="26">
<rect x="59.4604" y="5.85938" width="17.9032" height="24.4135" fill="#C4C4C4"/>
</mask>
<g mask="url(#mask3_123_194)">
<path fill-rule="evenodd" clip-rule="evenodd" d="M69.8843 27.4518C66.7289 27.4518 64.2914 26.6504 62.5719 25.0477C60.869 23.445 60.0175 20.8823 60.0175 17.3597C60.0175 10.6316 63.2897 7.26758 69.8342 7.26758C71.4202 7.26758 72.8893 7.45957 74.2416 7.84355C75.6106 8.22754 76.629 8.65326 77.2968 9.12072V15.3813H71.2866V13.5783C71.2866 12.9439 71.1447 12.4764 70.8609 12.1759C70.5771 11.8754 70.1514 11.7251 69.5837 11.7251C69.0161 11.7251 68.5904 11.8754 68.3066 12.1759C68.0228 12.4764 67.8809 12.9439 67.8809 13.5783V21.1411C67.8809 21.7755 68.0228 22.243 68.3066 22.5435C68.5904 22.844 69.0161 22.9942 69.5837 22.9942C70.1514 22.9942 70.5771 22.844 70.8609 22.5435C71.1447 22.243 71.2866 21.7755 71.2866 21.1411V19.1127H77.2968V25.5986C76.6123 26.0661 75.5939 26.4918 74.2416 26.8758C72.906 27.2598 71.4536 27.4518 69.8843 27.4518ZM3.79785 22.9942H5.04997V11.7251H3.79785V7.61817H14.7915C16.9451 7.61817 18.5896 8.08563 19.7248 9.02055C20.8601 9.93877 21.4277 11.433 21.4277 13.5031C21.4277 15.5733 20.8601 17.0759 19.7248 18.0108C18.5896 18.929 16.9451 19.3881 14.7915 19.3881H12.0619V22.9942H14.4659V27.1012H3.79785V22.9942ZM12.9133 15.8321C13.8816 15.8321 14.3658 15.2979 14.3658 14.2294V13.3279C14.3658 12.7769 14.2405 12.3762 13.9901 12.1258C13.7564 11.8587 13.3975 11.7251 12.9133 11.7251H12.0619V15.8321H12.9133ZM22.2862 27.1012V22.9942H23.5383V11.7251H22.2862V7.61817H39.1899V15.181H33.5804V11.7251H30.5502V15.6818H32.7539V18.5367H30.5502V22.9942H33.5804V19.0375H39.1899V27.1012H22.2862ZM41.3909 22.9942H40.1387V27.1012H46.9539C48.784 26.4265 48.9384 22.8381 48.7744 21.0513C47.844 20.8977 45.7988 20.1245 45.0617 18.26C44.3246 16.3955 45.6218 12.8761 46.3625 11.3494H52.6226C53.5711 13.3006 54.3571 16.2816 53.815 18.26C53.3814 19.8426 51.1773 20.7803 50.1294 21.0513C50.0481 21.6475 49.9885 23.2789 50.4004 25.035C50.7123 26.3645 51.4994 26.9184 52.1104 27.1012H53.2692H59.2712V22.9942H58.0942V21.066C58.0942 19.3464 57.2928 18.3614 55.6901 18.111L55.665 17.8605C56.4998 17.5433 57.1425 16.9757 57.5933 16.1576C58.0441 15.3396 58.2695 14.3713 58.2695 13.2527C58.2695 11.266 57.7018 9.83025 56.5666 8.94542C55.4313 8.06059 53.7869 7.61817 51.6332 7.61817H40.1387V11.7251H41.3909V22.9942ZM97.0222 11.7251H98.2744V7.61817H88.8083V11.7251H90.0104V15.5316H86.5044V11.7251H87.7064V7.61817H78.2404V11.7251H79.4925V22.9942H78.2404V27.1012H87.7064V22.9942H86.5044V18.8622H90.0104V22.9942H88.8083V27.1012H98.2744V22.9942H97.0222V11.7251ZM51.5114 14.9265C51.9604 14.9265 52.3244 14.5625 52.3244 14.1135C52.3244 13.6645 51.9604 13.3005 51.5114 13.3005C51.0624 13.3005 50.6984 13.6645 50.6984 14.1135C50.6984 14.5625 51.0624 14.9265 51.5114 14.9265ZM49.0453 17.3114C48.2432 17.1162 47.8078 16.146 47.6903 15.6853C47.2115 15.044 46.2052 14.2436 46.0101 16.1731C45.7662 18.5851 48.5846 19.7775 49.0453 19.7775C52.216 19.913 52.7852 17.6637 52.8936 17.0133C53.002 16.3628 52.6225 16.4712 52.3516 16.6338C51.0236 17.5824 50.048 17.5553 49.0453 17.3114Z" fill="#FFB577"/>
</g>
<mask id="mask4_123_194" style="mask-type:alpha" maskUnits="userSpaceOnUse" x="78" y="5" width="23" height="26">
<rect x="78.5571" y="5.85938" width="22.0264" height="24.4135" fill="#C4C4C4"/>
</mask>
<g mask="url(#mask4_123_194)">
<path fill-rule="evenodd" clip-rule="evenodd" d="M70.7519 27.4518C67.5966 27.4518 65.1591 26.6504 63.4395 25.0477C61.7367 23.445 60.8852 20.8823 60.8852 17.3597C60.8852 10.6316 64.1574 7.26758 70.7018 7.26758C72.2879 7.26758 73.757 7.45957 75.1093 7.84355C76.4783 8.22754 77.4967 8.65326 78.1645 9.12072V15.3813H72.1543V13.5783C72.1543 12.9439 72.0124 12.4764 71.7286 12.1759C71.4448 11.8754 71.019 11.7251 70.4514 11.7251C69.8838 11.7251 69.4581 11.8754 69.1743 12.1759C68.8904 12.4764 68.7485 12.9439 68.7485 13.5783V21.1411C68.7485 21.7755 68.8904 22.243 69.1743 22.5435C69.4581 22.844 69.8838 22.9942 70.4514 22.9942C71.019 22.9942 71.4448 22.844 71.7286 22.5435C72.0124 22.243 72.1543 21.7755 72.1543 21.1411V19.1127H78.1645V25.5986C77.48 26.0661 76.4616 26.4918 75.1093 26.8758C73.7737 27.2598 72.3213 27.4518 70.7519 27.4518ZM4.66553 22.9942H5.91765V11.7251H4.66553V7.61817H15.6592C17.8128 7.61817 19.4573 8.08563 20.5925 9.02055C21.7278 9.93877 22.2954 11.433 22.2954 13.5031C22.2954 15.5733 21.7278 17.0759 20.5925 18.0108C19.4573 18.929 17.8128 19.3881 15.6592 19.3881H12.9295V22.9942H15.3336V27.1012H4.66553V22.9942ZM13.781 15.8321C14.7493 15.8321 15.2334 15.2979 15.2334 14.2294V13.3279C15.2334 12.7769 15.1082 12.3762 14.8578 12.1258C14.6241 11.8587 14.2651 11.7251 13.781 11.7251H12.9295V15.8321H13.781ZM23.1539 27.1012V22.9942H24.406V11.7251H23.1539V7.61817H40.0575V15.181H34.448V11.7251H31.4179V15.6818H33.6216V18.5367H31.4179V22.9942H34.448V19.0375H40.0575V27.1012H23.1539ZM42.2585 22.9942H41.0064V27.1012H47.8216C49.6517 26.4265 49.8061 22.8381 49.6421 21.0513C48.7116 20.8977 46.6665 20.1245 45.9294 18.26C45.1922 16.3955 46.4894 12.8761 47.2302 11.3494H53.4903C54.4388 13.3006 55.2247 16.2816 54.6827 18.26C54.2491 19.8426 52.045 20.7803 50.9971 21.0513C50.9158 21.6475 50.8562 23.2789 51.2681 25.035C51.5799 26.3645 52.3671 26.9184 52.9781 27.1012H54.1369H60.1388V22.9942H58.9618V21.066C58.9618 19.3464 58.1605 18.3614 56.5578 18.111L56.5327 17.8605C57.3675 17.5433 58.0102 16.9757 58.461 16.1576C58.9117 15.3396 59.1371 14.3713 59.1371 13.2527C59.1371 11.266 58.5695 9.83025 57.4342 8.94542C56.299 8.06059 54.6545 7.61817 52.5009 7.61817H41.0064V11.7251H42.2585V22.9942ZM97.8899 11.7251H99.142V7.61817H89.676V11.7251H90.878V15.5316H87.3721V11.7251H88.5741V7.61817H79.1081V11.7251H80.3602V22.9942H79.1081V27.1012H88.5741V22.9942H87.3721V18.8622H90.878V22.9942H89.676V27.1012H99.142V22.9942H97.8899V11.7251ZM52.3791 14.9265C52.8281 14.9265 53.1921 14.5625 53.1921 14.1135C53.1921 13.6645 52.8281 13.3005 52.3791 13.3005C51.9301 13.3005 51.5661 13.6645 51.5661 14.1135C51.5661 14.5625 51.9301 14.9265 52.3791 14.9265ZM49.913 17.3114C49.1108 17.1162 48.6754 16.146 48.558 15.6853C48.0792 15.044 47.0729 14.2436 46.8778 16.1731C46.6339 18.5851 49.4523 19.7775 49.913 19.7775C53.0837 19.913 53.6528 17.6637 53.7612 17.0133C53.8696 16.3628 53.4902 16.4712 53.2192 16.6338C51.8913 17.5824 50.9157 17.5553 49.913 17.3114Z" fill="url(#paint2_linear_123_194)"/>
</g>
<path d="M6.34153 35.9646C6.34153 36.1395 6.31019 36.2921 6.24753 36.4223C6.18486 36.5507 6.10468 36.6577 6.00699 36.7433C5.9093 36.827 5.80148 36.8894 5.68351 36.9303C5.56555 36.9731 5.45219 36.9945 5.34344 36.9945C5.16281 36.9945 4.98679 36.9526 4.81537 36.8689C4.64396 36.787 4.49005 36.6586 4.35366 36.4837C4.2191 36.307 4.11036 36.0809 4.02741 35.8055C3.94631 35.5282 3.90576 35.1961 3.90576 34.8091C3.90576 34.5504 3.92512 34.3197 3.96382 34.1169C4.00437 33.9141 4.05782 33.7354 4.12418 33.581C4.19238 33.4265 4.27163 33.2954 4.36195 33.1874C4.45411 33.0776 4.55272 32.9893 4.65778 32.9223C4.76284 32.8534 4.87159 32.8032 4.98402 32.7716C5.09646 32.7399 5.20705 32.7241 5.3158 32.7241C5.47984 32.7241 5.62084 32.7474 5.73881 32.7939C5.85861 32.8404 5.95722 32.8999 6.03464 32.9725C6.11205 33.0451 6.16919 33.126 6.20605 33.2153C6.24292 33.3047 6.26135 33.3921 6.26135 33.4777C6.26135 33.5633 6.24937 33.6405 6.22541 33.7094C6.20329 33.7764 6.17288 33.8331 6.13417 33.8796C6.09546 33.9261 6.04938 33.9615 5.99593 33.9857C5.94248 34.0099 5.88534 34.022 5.82452 34.022C5.77291 34.022 5.7213 34.0127 5.66969 33.9941C5.61808 33.9755 5.572 33.9485 5.53145 33.9131C5.4909 33.8778 5.45772 33.835 5.43192 33.7847C5.40796 33.7326 5.39598 33.674 5.39598 33.6089C5.39782 33.5717 5.40243 33.5326 5.4098 33.4917C5.41717 33.4563 5.42823 33.4182 5.44298 33.3772C5.45957 33.3344 5.48353 33.2916 5.51486 33.2488C5.48721 33.2228 5.45772 33.2023 5.42639 33.1874C5.39505 33.1707 5.36648 33.1586 5.34068 33.1511C5.30935 33.1437 5.27801 33.1381 5.24668 33.1344C5.17479 33.1344 5.1112 33.1567 5.05591 33.2014C5.00061 33.246 4.95269 33.3084 4.91214 33.3884C4.87159 33.4665 4.83749 33.5596 4.80984 33.6675C4.7822 33.7754 4.76008 33.8927 4.74349 34.0192C4.72874 34.1457 4.71768 34.2788 4.71031 34.4183C4.70294 34.556 4.69925 34.6956 4.69925 34.837C4.69925 35.0491 4.71031 35.2584 4.73243 35.465C4.75639 35.6697 4.79418 35.8539 4.84579 36.0176C4.89924 36.1795 4.96928 36.3107 5.05591 36.4112C5.14438 36.5098 5.25221 36.5591 5.37939 36.5591C5.4568 36.5535 5.52684 36.5312 5.58951 36.4921C5.61716 36.4754 5.64388 36.4549 5.66969 36.4307C5.69549 36.4047 5.71853 36.373 5.73881 36.3358C5.76093 36.2967 5.77844 36.2521 5.79134 36.2018C5.80608 36.1516 5.8153 36.093 5.81899 36.026C5.78765 36.039 5.75171 36.0455 5.71116 36.0455C5.66692 36.0455 5.62361 36.0362 5.58122 36.0176C5.54067 35.9971 5.5038 35.9702 5.47062 35.9367C5.43745 35.9013 5.41072 35.8604 5.39045 35.8139C5.37017 35.7655 5.36003 35.7125 5.36003 35.6548C5.36003 35.5673 5.37939 35.4957 5.41809 35.4399C5.45864 35.3822 5.50472 35.3366 5.55633 35.3031C5.60794 35.2696 5.65863 35.2463 5.7084 35.2333C5.75816 35.2184 5.79318 35.211 5.81346 35.211C5.8282 35.211 5.85124 35.2138 5.88258 35.2194C5.91391 35.2231 5.94893 35.2333 5.98764 35.2501C6.02819 35.2668 6.06874 35.2919 6.10929 35.3254C6.15168 35.3571 6.18947 35.4008 6.22264 35.4566C6.25766 35.5124 6.28623 35.5822 6.30835 35.6659C6.33047 35.7478 6.34153 35.8474 6.34153 35.9646Z" fill="#FFB577"/>
<path d="M11.8435 34.8035C11.8435 35.1012 11.8159 35.3803 11.7606 35.6408C11.7053 35.9013 11.6233 36.1293 11.5145 36.3246C11.4058 36.5182 11.2703 36.6717 11.1081 36.7852C10.9478 36.8968 10.7625 36.9526 10.5524 36.9526C10.3386 36.9526 10.1506 36.8968 9.98838 36.7852C9.82802 36.6717 9.69347 36.5182 9.58472 36.3246C9.47782 36.1293 9.39672 35.9013 9.34142 35.6408C9.28797 35.3803 9.26124 35.1012 9.26124 34.8035C9.26124 34.5076 9.28705 34.2294 9.33866 33.9689C9.39211 33.7084 9.47229 33.4814 9.57919 33.2879C9.6861 33.0944 9.82065 32.9418 9.98285 32.8302C10.145 32.7167 10.3349 32.6599 10.5524 32.6599C10.7773 32.6599 10.9708 32.7167 11.133 32.8302C11.297 32.9418 11.4316 33.0944 11.5367 33.2879C11.6417 33.4814 11.7191 33.7084 11.7689 33.9689C11.8187 34.2294 11.8435 34.5076 11.8435 34.8035ZM11.1192 34.8035C11.1192 34.5728 11.11 34.356 11.0915 34.1532C11.0731 33.9485 11.0418 33.7708 10.9975 33.6201C10.9551 33.4675 10.8971 33.3475 10.8233 33.26C10.7515 33.1725 10.6611 33.1288 10.5524 33.1288C10.4473 33.1288 10.3589 33.1725 10.287 33.26C10.2151 33.3475 10.157 33.4675 10.1128 33.6201C10.0686 33.7708 10.0363 33.9485 10.016 34.1532C9.99575 34.356 9.98561 34.5728 9.98561 34.8035C9.98561 35.0361 9.99575 35.2547 10.016 35.4594C10.0363 35.6622 10.0686 35.8399 10.1128 35.9925C10.1589 36.1432 10.2179 36.2632 10.2897 36.3526C10.3616 36.44 10.4492 36.4837 10.5524 36.4837C10.6538 36.4837 10.7404 36.44 10.8123 36.3526C10.8842 36.2632 10.9431 36.1432 10.9892 35.9925C11.0353 35.8399 11.0685 35.6622 11.0888 35.4594C11.109 35.2547 11.1192 35.0361 11.1192 34.8035Z" fill="#FFB577"/>
<path d="M16.8313 33.3744C16.6175 33.354 16.4304 33.3409 16.2701 33.3354C16.1097 33.3279 15.9724 33.3242 15.8581 33.3242C15.8065 33.3242 15.7623 33.3242 15.7254 33.3242C15.6904 33.3242 15.6572 33.3261 15.6259 33.3298V34.4267C15.753 34.423 15.8673 34.4183 15.9687 34.4127C16.0701 34.4053 16.1558 34.3969 16.2258 34.3876C16.3088 34.3783 16.3825 34.3681 16.447 34.3569C16.4452 34.3699 16.4442 34.3848 16.4442 34.4016C16.4424 34.4165 16.4415 34.4341 16.4415 34.4546C16.4415 34.4751 16.4415 34.4983 16.4415 34.5244C16.4415 34.5839 16.4433 34.6556 16.447 34.7393C16.4507 34.8212 16.4581 34.9095 16.4691 35.0044C16.2737 34.9784 16.1051 34.9626 15.9632 34.957C15.8212 34.9496 15.7107 34.9458 15.6314 34.9458C15.6351 35.3012 15.6415 35.6027 15.6507 35.8502C15.6618 36.0958 15.6729 36.2949 15.6839 36.4474C15.695 36.6279 15.7079 36.774 15.7226 36.8857C15.6876 36.8801 15.6471 36.8754 15.601 36.8717C15.5549 36.8698 15.5061 36.8689 15.4544 36.8689C15.3899 36.8689 15.3245 36.8698 15.2581 36.8717C15.1918 36.8754 15.1319 36.8791 15.0784 36.8829C15.0158 36.8884 14.9549 36.8931 14.896 36.8968C14.9089 36.7721 14.9199 36.6465 14.9291 36.52C14.9402 36.3935 14.9494 36.2688 14.9568 36.146C14.9642 36.0232 14.9706 35.905 14.9761 35.7915C14.9817 35.678 14.9863 35.571 14.99 35.4706C14.9973 35.2361 15.0019 35.0119 15.0038 34.7979C15.0019 34.5746 14.9973 34.3457 14.99 34.1113C14.9863 34.0108 14.9817 33.9057 14.9761 33.7959C14.9706 33.6842 14.9642 33.5707 14.9568 33.4554C14.9494 33.34 14.9402 33.2246 14.9291 33.1093C14.9199 32.9921 14.9089 32.8785 14.896 32.7688C15.1264 32.7781 15.3319 32.7855 15.5125 32.7911C15.695 32.7948 15.8572 32.7967 15.9991 32.7967C16.1392 32.7967 16.2599 32.7957 16.3613 32.7939C16.4627 32.7902 16.5456 32.7864 16.6101 32.7827C16.6857 32.779 16.7484 32.7743 16.7981 32.7688C16.7981 32.7669 16.7981 32.7837 16.7981 32.819C16.7981 32.8544 16.7991 32.9009 16.8009 32.9586C16.8027 33.0162 16.8055 33.0814 16.8092 33.1539C16.8147 33.2265 16.8221 33.3 16.8313 33.3744Z" fill="#FFB577"/>
<path d="M21.7002 33.3744C21.4864 33.354 21.2993 33.3409 21.1389 33.3354C20.9786 33.3279 20.8413 33.3242 20.727 33.3242C20.6754 33.3242 20.6311 33.3242 20.5943 33.3242C20.5593 33.3242 20.5261 33.3261 20.4947 33.3298V34.4267C20.6219 34.423 20.7362 34.4183 20.8376 34.4127C20.939 34.4053 21.0247 34.3969 21.0947 34.3876C21.1776 34.3783 21.2514 34.3681 21.3159 34.3569C21.314 34.3699 21.3131 34.3848 21.3131 34.4016C21.3113 34.4165 21.3104 34.4341 21.3104 34.4546C21.3104 34.4751 21.3104 34.4983 21.3104 34.5244C21.3104 34.5839 21.3122 34.6556 21.3159 34.7393C21.3196 34.8212 21.3269 34.9095 21.338 35.0044C21.1426 34.9784 20.974 34.9626 20.832 34.957C20.6901 34.9496 20.5795 34.9458 20.5003 34.9458C20.504 35.3012 20.5104 35.6027 20.5196 35.8502C20.5307 36.0958 20.5417 36.2949 20.5528 36.4474C20.5639 36.6279 20.5768 36.774 20.5915 36.8857C20.5565 36.8801 20.5159 36.8754 20.4699 36.8717C20.4238 36.8698 20.3749 36.8689 20.3233 36.8689C20.2588 36.8689 20.1934 36.8698 20.127 36.8717C20.0607 36.8754 20.0008 36.8791 19.9473 36.8829C19.8847 36.8884 19.8238 36.8931 19.7648 36.8968C19.7777 36.7721 19.7888 36.6465 19.798 36.52C19.8091 36.3935 19.8183 36.2688 19.8257 36.146C19.833 36.0232 19.8395 35.905 19.845 35.7915C19.8506 35.678 19.8552 35.571 19.8588 35.4706C19.8662 35.2361 19.8708 35.0119 19.8727 34.7979C19.8708 34.5746 19.8662 34.3457 19.8588 34.1113C19.8552 34.0108 19.8506 33.9057 19.845 33.7959C19.8395 33.6842 19.833 33.5707 19.8257 33.4554C19.8183 33.34 19.8091 33.2246 19.798 33.1093C19.7888 32.9921 19.7777 32.8785 19.7648 32.7688C19.9952 32.7781 20.2008 32.7855 20.3814 32.7911C20.5639 32.7948 20.7261 32.7967 20.868 32.7967C21.0081 32.7967 21.1288 32.7957 21.2302 32.7939C21.3316 32.7902 21.4145 32.7864 21.479 32.7827C21.5546 32.779 21.6172 32.7743 21.667 32.7688C21.667 32.7669 21.667 32.7837 21.667 32.819C21.667 32.8544 21.6679 32.9009 21.6698 32.9586C21.6716 33.0162 21.6744 33.0814 21.6781 33.1539C21.6836 33.2265 21.691 33.3 21.7002 33.3744Z" fill="#FFB577"/>
<path d="M26.6022 36.8689C26.4529 36.8652 26.3138 36.8624 26.1848 36.8605C26.0576 36.8605 25.9369 36.8605 25.8226 36.8605C25.5996 36.8605 25.4125 36.8624 25.2613 36.8661C25.112 36.8717 24.9904 36.8763 24.8964 36.8801C24.7858 36.8857 24.6982 36.8912 24.6337 36.8968C24.6466 36.7721 24.6577 36.6465 24.6669 36.52C24.678 36.3935 24.6872 36.2688 24.6945 36.146C24.7019 36.0232 24.7084 35.905 24.7139 35.7915C24.7194 35.678 24.724 35.571 24.7277 35.4706C24.7351 35.2361 24.7397 35.0119 24.7415 34.7979C24.7397 34.5746 24.7351 34.3457 24.7277 34.1113C24.724 34.0108 24.7194 33.9057 24.7139 33.7959C24.7084 33.6842 24.7019 33.5707 24.6945 33.4554C24.6872 33.34 24.678 33.2246 24.6669 33.1093C24.6577 32.9921 24.6466 32.8785 24.6337 32.7688C24.8641 32.7781 25.0696 32.7855 25.2503 32.7911C25.4327 32.7948 25.5949 32.7967 25.7369 32.7967C25.877 32.7967 25.9977 32.7957 26.0991 32.7939C26.2004 32.7902 26.2834 32.7864 26.3479 32.7827C26.4235 32.779 26.4861 32.7743 26.5359 32.7688C26.5359 32.7669 26.5359 32.7837 26.5359 32.819C26.5359 32.8544 26.5368 32.9009 26.5387 32.9586C26.5405 33.0162 26.5433 33.0814 26.5469 33.1539C26.5525 33.2265 26.5598 33.3 26.5691 33.3744C26.3553 33.354 26.1682 33.3409 26.0078 33.3354C25.8475 33.3279 25.7101 33.3242 25.5959 33.3242C25.5479 33.3242 25.5055 33.3242 25.4687 33.3242C25.4337 33.3242 25.4005 33.3261 25.3692 33.3298C25.3655 33.5363 25.3627 33.7308 25.3609 33.9131C25.359 34.0936 25.3581 34.2648 25.3581 34.4267C25.4871 34.423 25.6023 34.4183 25.7037 34.4127C25.8051 34.4053 25.8917 34.3969 25.9636 34.3876C26.0465 34.3783 26.1203 34.3681 26.1848 34.3569C26.1829 34.3699 26.182 34.3848 26.182 34.4016C26.1802 34.4165 26.1792 34.4341 26.1792 34.4546C26.1792 34.4751 26.1792 34.4983 26.1792 34.5244C26.1792 34.5839 26.1811 34.6556 26.1848 34.7393C26.1884 34.8212 26.1958 34.9095 26.2069 35.0044C26.0078 34.9784 25.8364 34.9626 25.6926 34.957C25.5489 34.9496 25.4374 34.9458 25.3581 34.9458C25.3581 35.1393 25.359 35.3124 25.3609 35.465C25.3627 35.6157 25.3645 35.7487 25.3664 35.8641C25.3701 35.9795 25.3728 36.0781 25.3747 36.16C25.3784 36.2418 25.3821 36.3098 25.3857 36.3637C25.5737 36.36 25.7415 36.3507 25.8889 36.3358C26.0364 36.3209 26.1608 36.306 26.2622 36.2911C26.3636 36.2744 26.441 36.2595 26.4944 36.2465C26.5479 36.2335 26.5746 36.2251 26.5746 36.2214C26.5728 36.2307 26.5718 36.2409 26.5718 36.2521C26.57 36.2614 26.5691 36.2735 26.5691 36.2884C26.5691 36.3032 26.5691 36.3209 26.5691 36.3414C26.5691 36.3935 26.5709 36.4633 26.5746 36.5507C26.5783 36.6382 26.5875 36.7442 26.6022 36.8689Z" fill="#FFB577"/>
<path d="M31.5707 36.8689C31.4214 36.8652 31.2822 36.8624 31.1532 36.8605C31.026 36.8605 30.9053 36.8605 30.791 36.8605C30.568 36.8605 30.3809 36.8624 30.2297 36.8661C30.0804 36.8717 29.9588 36.8763 29.8648 36.8801C29.7542 36.8857 29.6666 36.8912 29.6021 36.8968C29.615 36.7721 29.6261 36.6465 29.6353 36.52C29.6464 36.3935 29.6556 36.2688 29.663 36.146C29.6703 36.0232 29.6768 35.905 29.6823 35.7915C29.6878 35.678 29.6925 35.571 29.6961 35.4706C29.7035 35.2361 29.7081 35.0119 29.71 34.7979C29.7081 34.5746 29.7035 34.3457 29.6961 34.1113C29.6925 34.0108 29.6878 33.9057 29.6823 33.7959C29.6768 33.6842 29.6703 33.5707 29.663 33.4554C29.6556 33.34 29.6464 33.2246 29.6353 33.1093C29.6261 32.9921 29.615 32.8785 29.6021 32.7688C29.8325 32.7781 30.038 32.7855 30.2187 32.7911C30.4012 32.7948 30.5634 32.7967 30.7053 32.7967C30.8454 32.7967 30.9661 32.7957 31.0675 32.7939C31.1688 32.7902 31.2518 32.7864 31.3163 32.7827C31.3919 32.779 31.4545 32.7743 31.5043 32.7688C31.5043 32.7669 31.5043 32.7837 31.5043 32.819C31.5043 32.8544 31.5052 32.9009 31.5071 32.9586C31.5089 33.0162 31.5117 33.0814 31.5154 33.1539C31.5209 33.2265 31.5283 33.3 31.5375 33.3744C31.3237 33.354 31.1366 33.3409 30.9762 33.3354C30.8159 33.3279 30.6786 33.3242 30.5643 33.3242C30.5164 33.3242 30.474 33.3242 30.4371 33.3242C30.4021 33.3242 30.3689 33.3261 30.3376 33.3298C30.3339 33.5363 30.3311 33.7308 30.3293 33.9131C30.3274 34.0936 30.3265 34.2648 30.3265 34.4267C30.4555 34.423 30.5707 34.4183 30.6721 34.4127C30.7735 34.4053 30.8601 34.3969 30.932 34.3876C31.0149 34.3783 31.0887 34.3681 31.1532 34.3569C31.1513 34.3699 31.1504 34.3848 31.1504 34.4016C31.1486 34.4165 31.1476 34.4341 31.1476 34.4546C31.1476 34.4751 31.1476 34.4983 31.1476 34.5244C31.1476 34.5839 31.1495 34.6556 31.1532 34.7393C31.1569 34.8212 31.1642 34.9095 31.1753 35.0044C30.9762 34.9784 30.8048 34.9626 30.661 34.957C30.5173 34.9496 30.4058 34.9458 30.3265 34.9458C30.3265 35.1393 30.3274 35.3124 30.3293 35.465C30.3311 35.6157 30.333 35.7487 30.3348 35.8641C30.3385 35.9795 30.3413 36.0781 30.3431 36.16C30.3468 36.2418 30.3505 36.3098 30.3542 36.3637C30.5422 36.36 30.7099 36.3507 30.8573 36.3358C31.0048 36.3209 31.1292 36.306 31.2306 36.2911C31.332 36.2744 31.4094 36.2595 31.4628 36.2465C31.5163 36.2335 31.543 36.2251 31.543 36.2214C31.5412 36.2307 31.5402 36.2409 31.5402 36.2521C31.5384 36.2614 31.5375 36.2735 31.5375 36.2884C31.5375 36.3032 31.5375 36.3209 31.5375 36.3414C31.5375 36.3935 31.5393 36.4633 31.543 36.5507C31.5467 36.6382 31.5559 36.7442 31.5707 36.8689Z" fill="#FFB577"/>
<path d="M38.5381 36.4726C38.5381 36.3293 38.5344 36.186 38.5271 36.0427C38.5215 35.8995 38.5151 35.7562 38.5077 35.6129C38.5003 35.4678 38.493 35.3226 38.4856 35.1775C38.4801 35.0305 38.4773 34.8816 38.4773 34.7309C38.4773 34.5728 38.4819 34.4127 38.4911 34.2508C38.5022 34.0871 38.5224 33.9299 38.5519 33.7791C38.5814 33.6266 38.622 33.4842 38.6736 33.3521C38.7252 33.2181 38.7925 33.1018 38.8754 33.0032C38.9584 32.9046 39.0597 32.8264 39.1795 32.7688C39.2993 32.7111 39.4403 32.6822 39.6025 32.6822C39.7574 32.6822 39.8919 32.7074 40.0062 32.7576C40.1205 32.806 40.2173 32.873 40.2965 32.9586C40.3776 33.0442 40.443 33.1446 40.4928 33.26C40.5444 33.3754 40.584 33.5 40.6117 33.634C40.6412 33.768 40.6615 33.9075 40.6725 34.0527C40.6836 34.1978 40.6891 34.342 40.6891 34.4853C40.6891 34.5225 40.6882 34.5551 40.6863 34.583C40.6863 34.6109 40.6854 34.6416 40.6836 34.6751C40.6836 34.7067 40.6817 34.7449 40.678 34.7895C40.6762 34.8342 40.6734 34.8928 40.6698 34.9654C40.6661 35.0361 40.6615 35.1235 40.6559 35.2277C40.6522 35.3319 40.6476 35.4603 40.6421 35.6129C40.6366 35.7655 40.6301 35.946 40.6228 36.1544C40.6154 36.3609 40.608 36.6028 40.6006 36.8801L39.774 36.8494C39.8053 36.6372 39.8329 36.4251 39.8569 36.213C39.8827 35.999 39.9039 35.7999 39.9205 35.6157C39.7786 35.6045 39.6468 35.599 39.5251 35.599C39.4625 35.599 39.4035 35.5999 39.3482 35.6017C39.2929 35.6036 39.2441 35.6064 39.2017 35.6101C39.2072 35.7069 39.2136 35.8092 39.221 35.9171C39.2284 36.0251 39.2367 36.1339 39.2459 36.2437C39.2551 36.3535 39.2652 36.4623 39.2763 36.5703C39.2874 36.6763 39.3003 36.7777 39.315 36.8745L38.5326 36.8968C38.5363 36.828 38.5381 36.7582 38.5381 36.6875C38.5381 36.6149 38.5381 36.5433 38.5381 36.4726ZM39.1685 35.0212C39.2238 35.0249 39.2781 35.0268 39.3316 35.0268C39.3851 35.0268 39.4376 35.0268 39.4892 35.0268C39.6864 35.0268 39.8449 35.0212 39.9647 35.01C39.9758 34.8779 39.9869 34.7449 39.9979 34.6109C40.0108 34.4769 40.0173 34.3336 40.0173 34.1811C40.0173 33.8592 39.9841 33.6145 39.9177 33.447C39.8532 33.2777 39.7574 33.193 39.6302 33.193C39.5602 33.193 39.4956 33.2181 39.4367 33.2684C39.3777 33.3186 39.3261 33.3968 39.2818 33.5028C39.2394 33.607 39.2053 33.7391 39.1795 33.8992C39.1556 34.0592 39.1436 34.2481 39.1436 34.4658C39.1436 34.5421 39.1454 34.6239 39.1491 34.7114C39.1547 34.797 39.1611 34.9002 39.1685 35.0212Z" fill="#FFB577"/>
<path d="M46.2326 32.7074C46.2234 32.8581 46.2151 33.0153 46.2077 33.1791C46.2022 33.3409 46.1966 33.5038 46.1911 33.6675C46.1874 33.8312 46.1837 33.9922 46.1801 34.1504C46.1782 34.3085 46.1764 34.4574 46.1745 34.5969C46.1727 34.7365 46.1718 34.864 46.1718 34.9793C46.1718 35.0947 46.1718 35.1924 46.1718 35.2724C46.1718 35.3766 46.1718 35.492 46.1718 35.6185C46.1718 35.745 46.1727 35.8753 46.1745 36.0092C46.1764 36.1432 46.1782 36.2781 46.1801 36.414C46.1837 36.5479 46.1884 36.6745 46.1939 36.7935C46.1146 36.7898 46.0418 36.788 45.9755 36.788C45.911 36.788 45.852 36.788 45.7985 36.788C45.7027 36.788 45.6234 36.7889 45.5607 36.7908C45.4981 36.7926 45.4483 36.7954 45.4115 36.7991C45.3672 36.8028 45.3331 36.8066 45.3092 36.8103C45.3036 36.7712 45.2916 36.7107 45.2732 36.6289C45.2566 36.5451 45.2345 36.4465 45.2069 36.333C45.1811 36.2195 45.1506 36.0939 45.1156 35.9562C45.0806 35.8185 45.0428 35.6752 45.0023 35.5264C44.9636 35.3775 44.923 35.2268 44.8806 35.0742C44.8382 34.9198 44.7958 34.77 44.7534 34.6249C44.7129 34.4779 44.6723 34.3392 44.6318 34.209C44.5931 34.0769 44.5571 33.9587 44.524 33.8545C44.5092 34.0927 44.4982 34.3132 44.4908 34.516C44.4834 34.717 44.4779 34.8928 44.4742 35.0435C44.4687 35.2184 44.4659 35.3785 44.4659 35.5236C44.4659 35.6483 44.4687 35.7804 44.4742 35.9199C44.4779 36.039 44.4843 36.1749 44.4935 36.3274C44.5046 36.48 44.5203 36.6354 44.5405 36.7935C44.3986 36.788 44.2816 36.7852 44.1894 36.7852C44.0991 36.7833 44.0272 36.7824 43.9738 36.7824H43.8383C43.8475 36.4493 43.8549 36.1665 43.8604 35.9339C43.8659 35.7013 43.8696 35.5068 43.8715 35.3505C43.8752 35.1924 43.877 35.0658 43.877 34.971C43.8788 34.8761 43.8798 34.7998 43.8798 34.7421C43.8798 34.6825 43.8788 34.6351 43.877 34.5997C43.877 34.5644 43.877 34.5281 43.877 34.4909C43.877 34.3978 43.8761 34.2871 43.8742 34.1587C43.8742 34.0303 43.8724 33.8927 43.8687 33.7457C43.865 33.5968 43.8595 33.4424 43.8521 33.2823C43.8447 33.1223 43.8346 32.9641 43.8217 32.8078C44.0097 32.8078 44.1645 32.806 44.2862 32.8023C44.4078 32.7985 44.5046 32.7948 44.5765 32.7911C44.6613 32.7855 44.7267 32.7799 44.7728 32.7743C44.782 32.8339 44.8004 32.9269 44.8281 33.0535C44.8576 33.18 44.8917 33.327 44.9304 33.4945C44.9709 33.6601 45.0161 33.8396 45.0659 34.0331C45.1156 34.2267 45.1663 34.422 45.2179 34.6193C45.2714 34.8146 45.3248 35.0054 45.3783 35.1914C45.4317 35.3757 45.4824 35.5422 45.5303 35.6911C45.5396 35.5329 45.546 35.3719 45.5497 35.2082C45.5552 35.0426 45.5589 34.8881 45.5607 34.7449C45.5644 34.6016 45.5663 34.4769 45.5663 34.3709C45.5663 34.2629 45.5663 34.1885 45.5663 34.1476C45.5644 33.9782 45.5607 33.8089 45.5552 33.6396C45.5534 33.567 45.5506 33.4917 45.5469 33.4135C45.5432 33.3354 45.5386 33.2572 45.5331 33.1791C45.5294 33.099 45.5239 33.0209 45.5165 32.9446C45.511 32.8683 45.5045 32.7967 45.4972 32.7297L46.2326 32.7074Z" fill="#FFB577"/>
<path d="M51.7318 34.89C51.7318 35.1933 51.7033 35.4557 51.6461 35.6771C51.5908 35.8967 51.519 36.0846 51.4305 36.2409C51.342 36.3953 51.2425 36.5209 51.1319 36.6177C51.0213 36.7145 50.9107 36.7889 50.8001 36.841C50.6895 36.895 50.5854 36.9312 50.4877 36.9498C50.39 36.9703 50.3098 36.9806 50.2472 36.9806C50.2324 36.9806 50.1992 36.9796 50.1476 36.9778C50.0979 36.9759 50.0361 36.9712 49.9624 36.9638C49.8887 36.9582 49.8048 36.9489 49.7108 36.9359C49.6186 36.9229 49.5219 36.9043 49.4205 36.8801C49.4223 36.5116 49.4242 36.1925 49.426 35.9227C49.4297 35.6511 49.4325 35.4175 49.4343 35.2222C49.4362 35.0268 49.438 34.863 49.4398 34.7309C49.4417 34.5988 49.4426 34.4853 49.4426 34.3904C49.4445 34.2955 49.4454 34.2146 49.4454 34.1476C49.4472 34.0787 49.4481 34.0117 49.4481 33.9466C49.4481 33.8443 49.4472 33.7391 49.4454 33.6312C49.4435 33.5214 49.4398 33.4154 49.4343 33.313C49.4288 33.2107 49.4214 33.1149 49.4122 33.0255C49.403 32.9362 49.391 32.8599 49.3763 32.7967C49.52 32.7874 49.6509 32.7818 49.7689 32.7799C49.8887 32.7762 49.9919 32.7743 50.0785 32.7743C50.296 32.7743 50.4877 32.8013 50.6536 32.8553C50.8195 32.9074 50.9632 32.9809 51.0849 33.0758C51.2084 33.1688 51.3107 33.2814 51.3918 33.4135C51.4747 33.5438 51.5411 33.687 51.5908 33.8433C51.6424 33.9996 51.6784 34.1671 51.6987 34.3457C51.7208 34.5225 51.7318 34.7039 51.7318 34.89ZM51.013 34.8035C51.013 34.4741 50.9973 34.2062 50.966 33.9996C50.9365 33.7912 50.8877 33.6294 50.8195 33.514C50.7531 33.3986 50.6656 33.3205 50.5568 33.2795C50.4499 33.2367 50.32 33.2153 50.167 33.2153H50.084L50.1172 36.4949C50.1541 36.5098 50.1882 36.52 50.2195 36.5256C50.2527 36.5293 50.2849 36.5312 50.3163 36.5312C50.4398 36.5312 50.5448 36.5023 50.6315 36.4447C50.7199 36.3851 50.7918 36.2884 50.8471 36.1544C50.9043 36.0185 50.9457 35.8408 50.9715 35.6213C50.9992 35.3999 51.013 35.1273 51.013 34.8035Z" fill="#FFB577"/>
<path d="M61.876 32.833C61.8926 33.0544 61.9074 33.287 61.9203 33.5307C61.9258 33.6349 61.9313 33.7466 61.9368 33.8657C61.9424 33.9848 61.947 34.1094 61.9507 34.2397C61.9544 34.3681 61.9571 34.5002 61.959 34.636C61.9627 34.77 61.9645 34.904 61.9645 35.0379C61.9645 35.3003 61.9479 35.5496 61.9147 35.786C61.8816 36.0223 61.8272 36.2307 61.7516 36.4112C61.676 36.5917 61.5765 36.7349 61.453 36.841C61.3295 36.9471 61.1775 37.0001 60.9968 37.0001C60.9931 37.0001 60.9765 36.9992 60.9471 36.9973C60.9194 36.9954 60.8835 36.9889 60.8392 36.9778C60.795 36.9666 60.7452 36.9489 60.6899 36.9247C60.6365 36.9005 60.5821 36.8661 60.5268 36.8215C60.4715 36.7768 60.419 36.72 60.3692 36.6512C60.3195 36.5805 60.278 36.4949 60.2448 36.3944C60.2061 36.4893 60.16 36.5684 60.1066 36.6317C60.0531 36.6949 59.9978 36.748 59.9407 36.7908C59.8835 36.8317 59.8255 36.8633 59.7665 36.8857C59.7094 36.908 59.6578 36.9238 59.6117 36.9331C59.5656 36.9424 59.5269 36.948 59.4956 36.9498C59.4642 36.9517 59.4458 36.9526 59.4403 36.9526C59.3297 36.9526 59.2347 36.9266 59.1555 36.8745C59.0781 36.8242 59.0117 36.7545 58.9564 36.6652C58.903 36.574 58.8606 36.4679 58.8292 36.347C58.7979 36.2242 58.773 36.092 58.7546 35.9506C58.738 35.8074 58.7269 35.6576 58.7214 35.5013C58.7177 35.345 58.7159 35.1887 58.7159 35.0324C58.7159 34.8909 58.7168 34.7505 58.7186 34.6109C58.7205 34.4695 58.7223 34.3327 58.7242 34.2006C58.7279 34.0685 58.7316 33.942 58.7352 33.821C58.7408 33.6982 58.7454 33.5847 58.7491 33.4805C58.7583 33.2349 58.7693 33.0032 58.7822 32.7855L59.5923 32.8078C59.5573 33.0237 59.526 33.2507 59.4983 33.4889C59.4873 33.5912 59.4762 33.701 59.4651 33.8182C59.4541 33.9354 59.4439 34.0583 59.4347 34.1866C59.4274 34.3132 59.4209 34.4444 59.4154 34.5802C59.4098 34.7142 59.4071 34.8481 59.4071 34.9821C59.4071 35.0845 59.4071 35.1877 59.4071 35.2919C59.4089 35.3961 59.4117 35.4975 59.4154 35.5962C59.4209 35.6929 59.4283 35.7841 59.4375 35.8697C59.4467 35.9534 59.4596 36.0279 59.4762 36.093C59.4946 36.1562 59.5167 36.2065 59.5426 36.2437C59.5702 36.2791 59.6043 36.2967 59.6448 36.2967C59.6836 36.2967 59.7195 36.2725 59.7527 36.2242C59.7877 36.1758 59.8181 36.1125 59.8439 36.0344C59.8716 35.9544 59.8955 35.865 59.9158 35.7664C59.9379 35.6659 59.9554 35.5655 59.9683 35.465C59.9831 35.3626 59.9941 35.264 60.0015 35.1691C60.0089 35.0742 60.0126 34.9923 60.0126 34.9235C60.0126 34.9012 60.0135 34.8723 60.0153 34.837C60.0153 34.8053 60.0153 34.7653 60.0153 34.717C60.0172 34.6667 60.0181 34.6062 60.0181 34.5355C60.0181 34.3941 60.0163 34.2034 60.0126 33.9634C60.0089 33.7215 60.0033 33.4191 59.996 33.0562L60.6982 33.0842C60.6816 33.3837 60.6678 33.6387 60.6568 33.8489C60.6457 34.0592 60.6365 34.235 60.6291 34.3764C60.6217 34.516 60.6162 34.6286 60.6125 34.7142C60.6107 34.7979 60.6088 34.8649 60.607 34.9151C60.607 34.9635 60.607 35.0007 60.607 35.0268C60.607 35.051 60.607 35.0742 60.607 35.0966C60.607 35.1766 60.6098 35.2631 60.6153 35.3561C60.6227 35.4473 60.6328 35.5385 60.6457 35.6297C60.6604 35.7208 60.678 35.8092 60.6982 35.8948C60.7203 35.9785 60.7443 36.053 60.7701 36.1181C60.7978 36.1814 60.8282 36.2325 60.8614 36.2716C60.8964 36.3107 60.9342 36.3302 60.9747 36.3302C61.0374 36.3302 61.0871 36.2949 61.124 36.2242C61.1627 36.1535 61.1913 36.0576 61.2097 35.9367C61.23 35.8139 61.2429 35.6725 61.2484 35.5124C61.2539 35.3505 61.2567 35.1794 61.2567 34.9989C61.2567 34.7179 61.2503 34.4583 61.2374 34.2201C61.2263 33.982 61.2116 33.7708 61.1931 33.5866C61.1747 33.4005 61.1553 33.2423 61.1351 33.1121C61.1166 32.98 61.101 32.8804 61.0881 32.8134L61.876 32.833Z" fill="#FFB577"/>
<path d="M65.874 36.8326L65.1441 36.908C65.1478 36.7833 65.1505 36.654 65.1524 36.52C65.1561 36.3842 65.1588 36.2493 65.1607 36.1153C65.1625 35.9813 65.1644 35.8502 65.1662 35.7218C65.1681 35.5915 65.169 35.4687 65.169 35.3533C65.1708 35.0817 65.1717 34.8146 65.1717 34.5523C65.1699 34.3178 65.1671 34.0908 65.1635 33.8713C65.1616 33.7782 65.1588 33.6824 65.1552 33.5838C65.1533 33.4852 65.1505 33.3884 65.1469 33.2935C65.1432 33.1986 65.1386 33.1093 65.133 33.0255C65.1294 32.94 65.1238 32.8637 65.1164 32.7967L65.8132 32.7632C65.8095 32.8785 65.8058 32.9976 65.8021 33.1204C65.8003 33.2414 65.7984 33.3623 65.7966 33.4833C65.7947 33.6024 65.7929 33.7177 65.7911 33.8294C65.7911 33.941 65.7911 34.0452 65.7911 34.142C65.7911 34.6276 65.7966 35.091 65.8076 35.532C65.8205 35.9711 65.8427 36.4047 65.874 36.8326Z" fill="#FFB577"/>
<path d="M71.423 32.7074C71.4138 32.8581 71.4055 33.0153 71.3981 33.1791C71.3926 33.3409 71.3871 33.5038 71.3815 33.6675C71.3779 33.8312 71.3742 33.9922 71.3705 34.1504C71.3686 34.3085 71.3668 34.4574 71.365 34.5969C71.3631 34.7365 71.3622 34.864 71.3622 34.9793C71.3622 35.0947 71.3622 35.1924 71.3622 35.2724C71.3622 35.3766 71.3622 35.492 71.3622 35.6185C71.3622 35.745 71.3631 35.8753 71.365 36.0092C71.3668 36.1432 71.3686 36.2781 71.3705 36.414C71.3742 36.5479 71.3788 36.6745 71.3843 36.7935C71.305 36.7898 71.2322 36.788 71.1659 36.788C71.1014 36.788 71.0424 36.788 70.9889 36.788C70.8931 36.788 70.8138 36.7889 70.7512 36.7908C70.6885 36.7926 70.6387 36.7954 70.6019 36.7991C70.5576 36.8028 70.5235 36.8066 70.4996 36.8103C70.494 36.7712 70.4821 36.7107 70.4636 36.6289C70.447 36.5451 70.4249 36.4465 70.3973 36.333C70.3715 36.2195 70.3411 36.0939 70.306 35.9562C70.271 35.8185 70.2332 35.6752 70.1927 35.5264C70.154 35.3775 70.1134 35.2268 70.071 35.0742C70.0286 34.9198 69.9863 34.77 69.9439 34.6249C69.9033 34.4779 69.8628 34.3392 69.8222 34.209C69.7835 34.0769 69.7476 33.9587 69.7144 33.8545C69.6996 34.0927 69.6886 34.3132 69.6812 34.516C69.6738 34.717 69.6683 34.8928 69.6646 35.0435C69.6591 35.2184 69.6563 35.3785 69.6563 35.5236C69.6563 35.6483 69.6591 35.7804 69.6646 35.9199C69.6683 36.039 69.6748 36.1749 69.684 36.3274C69.695 36.48 69.7107 36.6354 69.731 36.7935C69.589 36.788 69.472 36.7852 69.3798 36.7852C69.2895 36.7833 69.2176 36.7824 69.1642 36.7824H69.0287C69.0379 36.4493 69.0453 36.1665 69.0508 35.9339C69.0564 35.7013 69.0601 35.5068 69.0619 35.3505C69.0656 35.1924 69.0674 35.0658 69.0674 34.971C69.0693 34.8761 69.0702 34.7998 69.0702 34.7421C69.0702 34.6825 69.0693 34.6351 69.0674 34.5997C69.0674 34.5644 69.0674 34.5281 69.0674 34.4909C69.0674 34.3978 69.0665 34.2871 69.0647 34.1587C69.0647 34.0303 69.0628 33.8927 69.0591 33.7457C69.0554 33.5968 69.0499 33.4424 69.0425 33.2823C69.0352 33.1223 69.025 32.9641 69.0121 32.8078C69.2001 32.8078 69.355 32.806 69.4766 32.8023C69.5983 32.7985 69.695 32.7948 69.7669 32.7911C69.8517 32.7855 69.9171 32.7799 69.9632 32.7743C69.9724 32.8339 69.9909 32.9269 70.0185 33.0535C70.048 33.18 70.0821 33.327 70.1208 33.4945C70.1614 33.6601 70.2065 33.8396 70.2563 34.0331C70.306 34.2267 70.3567 34.422 70.4083 34.6193C70.4618 34.8146 70.5152 35.0054 70.5687 35.1914C70.6221 35.3757 70.6728 35.5422 70.7208 35.6911C70.73 35.5329 70.7364 35.3719 70.7401 35.2082C70.7456 35.0426 70.7493 34.8881 70.7512 34.7449C70.7549 34.6016 70.7567 34.4769 70.7567 34.3709C70.7567 34.2629 70.7567 34.1885 70.7567 34.1476C70.7549 33.9782 70.7512 33.8089 70.7456 33.6396C70.7438 33.567 70.741 33.4917 70.7373 33.4135C70.7337 33.3354 70.7291 33.2572 70.7235 33.1791C70.7198 33.099 70.7143 33.0209 70.7069 32.9446C70.7014 32.8683 70.695 32.7967 70.6876 32.7297L71.423 32.7074Z" fill="#FFB577"/>
<path d="M76.5241 36.8689C76.3748 36.8652 76.2357 36.8624 76.1067 36.8605C75.9795 36.8605 75.8587 36.8605 75.7445 36.8605C75.5214 36.8605 75.3344 36.8624 75.1832 36.8661C75.0339 36.8717 74.9123 36.8763 74.8183 36.8801C74.7077 36.8857 74.6201 36.8912 74.5556 36.8968C74.5685 36.7721 74.5796 36.6465 74.5888 36.52C74.5998 36.3935 74.6091 36.2688 74.6164 36.146C74.6238 36.0232 74.6303 35.905 74.6358 35.7915C74.6413 35.678 74.6459 35.571 74.6496 35.4706C74.657 35.2361 74.6616 35.0119 74.6634 34.7979C74.6616 34.5746 74.657 34.3457 74.6496 34.1113C74.6459 34.0108 74.6413 33.9057 74.6358 33.7959C74.6303 33.6842 74.6238 33.5707 74.6164 33.4554C74.6091 33.34 74.5998 33.2246 74.5888 33.1093C74.5796 32.9921 74.5685 32.8785 74.5556 32.7688C74.786 32.7781 74.9915 32.7855 75.1722 32.7911C75.3546 32.7948 75.5168 32.7967 75.6588 32.7967C75.7988 32.7967 75.9196 32.7957 76.0209 32.7939C76.1223 32.7902 76.2053 32.7864 76.2698 32.7827C76.3453 32.779 76.408 32.7743 76.4578 32.7688C76.4578 32.7669 76.4578 32.7837 76.4578 32.819C76.4578 32.8544 76.4587 32.9009 76.4605 32.9586C76.4624 33.0162 76.4652 33.0814 76.4688 33.1539C76.4744 33.2265 76.4817 33.3 76.491 33.3744C76.2771 33.354 76.0901 33.3409 75.9297 33.3354C75.7693 33.3279 75.632 33.3242 75.5178 33.3242C75.4698 33.3242 75.4274 33.3242 75.3906 33.3242C75.3556 33.3242 75.3224 33.3261 75.291 33.3298C75.2874 33.5363 75.2846 33.7308 75.2827 33.9131C75.2809 34.0936 75.28 34.2648 75.28 34.4267C75.409 34.423 75.5242 34.4183 75.6256 34.4127C75.727 34.4053 75.8136 34.3969 75.8855 34.3876C75.9684 34.3783 76.0421 34.3681 76.1067 34.3569C76.1048 34.3699 76.1039 34.3848 76.1039 34.4016C76.102 34.4165 76.1011 34.4341 76.1011 34.4546C76.1011 34.4751 76.1011 34.4983 76.1011 34.5244C76.1011 34.5839 76.103 34.6556 76.1067 34.7393C76.1103 34.8212 76.1177 34.9095 76.1288 35.0044C75.9297 34.9784 75.7583 34.9626 75.6145 34.957C75.4708 34.9496 75.3592 34.9458 75.28 34.9458C75.28 35.1393 75.2809 35.3124 75.2827 35.465C75.2846 35.6157 75.2864 35.7487 75.2883 35.8641C75.292 35.9795 75.2947 36.0781 75.2966 36.16C75.3003 36.2418 75.3039 36.3098 75.3076 36.3637C75.4956 36.36 75.6634 36.3507 75.8108 36.3358C75.9583 36.3209 76.0827 36.306 76.1841 36.2911C76.2854 36.2744 76.3629 36.2595 76.4163 36.2465C76.4698 36.2335 76.4965 36.2251 76.4965 36.2214C76.4946 36.2307 76.4937 36.2409 76.4937 36.2521C76.4919 36.2614 76.491 36.2735 76.491 36.2884C76.491 36.3032 76.491 36.3209 76.491 36.3414C76.491 36.3935 76.4928 36.4633 76.4965 36.5507C76.5002 36.6382 76.5094 36.7442 76.5241 36.8689Z" fill="#FFB577"/>
<path d="M85.8195 35.7022C85.8103 35.8846 85.7781 36.0427 85.7228 36.1767C85.6675 36.3088 85.5965 36.4223 85.5099 36.5172C85.4251 36.6103 85.3283 36.6866 85.2196 36.7461C85.1127 36.8038 85.0039 36.8494 84.8933 36.8829C84.7846 36.9164 84.6767 36.9387 84.5698 36.9498C84.4648 36.9629 84.3717 36.9694 84.2906 36.9694C84.1339 36.9694 83.9865 36.9647 83.8482 36.9554C83.7118 36.9461 83.5782 36.9303 83.4474 36.908C83.4584 36.7908 83.4676 36.6624 83.475 36.5228C83.4824 36.3814 83.4888 36.2381 83.4944 36.093C83.4999 35.946 83.5036 35.8018 83.5054 35.6604C83.5073 35.5189 83.5091 35.3887 83.5109 35.2696C83.5128 35.1487 83.5137 35.0445 83.5137 34.957C83.5137 34.8677 83.5137 34.8035 83.5137 34.7644C83.5119 34.4983 83.5082 34.2415 83.5026 33.9941C83.5008 33.888 83.498 33.7801 83.4944 33.6703C83.4925 33.5586 83.4897 33.4507 83.4861 33.3465C83.4842 33.2405 83.4814 33.1409 83.4778 33.0479C83.4741 32.953 83.4695 32.8692 83.4639 32.7967C83.5155 32.7892 83.5718 32.7837 83.6326 32.7799C83.6953 32.7762 83.757 32.7734 83.8178 32.7716C83.8805 32.7678 83.9413 32.766 84.0003 32.766C84.0611 32.7641 84.1164 32.7632 84.1662 32.7632C84.3892 32.7632 84.5993 32.7799 84.7966 32.8134C84.9956 32.8469 85.1689 32.9046 85.3163 32.9865C85.4656 33.0665 85.5827 33.1735 85.6675 33.3074C85.7541 33.4396 85.7974 33.6052 85.7974 33.8043C85.7882 33.9252 85.7587 34.0387 85.7089 34.1448C85.6868 34.1913 85.6592 34.2388 85.626 34.2871C85.5947 34.3336 85.555 34.3783 85.5071 34.4211C85.4592 34.4639 85.403 34.5039 85.3385 34.5411C85.2739 34.5783 85.2002 34.609 85.1173 34.6332C85.2371 34.6649 85.3375 34.7123 85.4186 34.7756C85.4997 34.8388 85.5661 34.9095 85.6177 34.9877C85.6711 35.064 85.7108 35.1431 85.7366 35.2249C85.7642 35.3068 85.7836 35.3822 85.7946 35.451C85.8075 35.5199 85.8149 35.5776 85.8168 35.6241C85.8186 35.6706 85.8195 35.6966 85.8195 35.7022ZM85.0426 35.7301C85.0371 35.5738 85.0113 35.4333 84.9652 35.3087C84.9449 35.2566 84.9191 35.2054 84.8878 35.1552C84.8583 35.1031 84.8214 35.0575 84.7772 35.0184C84.733 34.9775 84.6804 34.9449 84.6196 34.9207C84.5588 34.8965 84.4887 34.8844 84.4095 34.8844C84.3892 34.8844 84.368 34.8854 84.3459 34.8872C84.3238 34.8891 84.2998 34.8919 84.274 34.8956L84.2519 36.4726C84.3072 36.4837 84.3616 36.4893 84.415 36.4893C84.4924 36.4893 84.5597 36.4791 84.6168 36.4586C84.6758 36.4363 84.7274 36.4074 84.7717 36.3721C84.8159 36.3349 84.8528 36.2939 84.8823 36.2493C84.9136 36.2046 84.9394 36.1581 84.9597 36.1097C85.0076 35.9981 85.0352 35.8715 85.0426 35.7301ZM85.0316 33.7875C85.0242 33.6833 84.9984 33.5903 84.9541 33.5084C84.9357 33.4731 84.9118 33.4386 84.8823 33.4051C84.8546 33.3716 84.8196 33.3419 84.7772 33.3158C84.7367 33.2898 84.6878 33.2684 84.6307 33.2516C84.5754 33.2349 84.5109 33.2265 84.4371 33.2265C84.3782 33.2265 84.3127 33.2321 84.2408 33.2433L84.274 34.4267H84.3348C84.4491 34.4267 84.5459 34.4118 84.6251 34.382C84.7044 34.3504 84.7698 34.3122 84.8214 34.2676C84.873 34.2211 84.9127 34.1708 84.9403 34.1169C84.9698 34.0629 84.991 34.0127 85.0039 33.9662C85.0168 33.9178 85.0242 33.8778 85.026 33.8461C85.0297 33.8126 85.0316 33.7931 85.0316 33.7875Z" fill="#FFB577"/>
<path d="M88.919 36.4726C88.919 36.3293 88.9153 36.186 88.9079 36.0427C88.9024 35.8995 88.8959 35.7562 88.8885 35.6129C88.8812 35.4678 88.8738 35.3226 88.8664 35.1775C88.8609 35.0305 88.8581 34.8816 88.8581 34.7309C88.8581 34.5728 88.8627 34.4127 88.872 34.2508C88.883 34.0871 88.9033 33.9299 88.9328 33.7791C88.9623 33.6266 89.0028 33.4842 89.0544 33.3521C89.106 33.2181 89.1733 33.1018 89.2563 33.0032C89.3392 32.9046 89.4406 32.8264 89.5604 32.7688C89.6802 32.7111 89.8212 32.6822 89.9834 32.6822C90.1382 32.6822 90.2728 32.7074 90.387 32.7576C90.5013 32.806 90.5981 32.873 90.6773 32.9586C90.7584 33.0442 90.8239 33.1446 90.8736 33.26C90.9253 33.3754 90.9649 33.5 90.9925 33.634C91.022 33.768 91.0423 33.9075 91.0534 34.0527C91.0644 34.1978 91.0699 34.342 91.0699 34.4853C91.0699 34.5225 91.069 34.5551 91.0672 34.583C91.0672 34.6109 91.0663 34.6416 91.0644 34.6751C91.0644 34.7067 91.0626 34.7449 91.0589 34.7895C91.057 34.8342 91.0543 34.8928 91.0506 34.9654C91.0469 35.0361 91.0423 35.1235 91.0368 35.2277C91.0331 35.3319 91.0285 35.4603 91.0229 35.6129C91.0174 35.7655 91.011 35.946 91.0036 36.1544C90.9962 36.3609 90.9888 36.6028 90.9815 36.8801L90.1548 36.8494C90.1861 36.6372 90.2138 36.4251 90.2377 36.213C90.2636 35.999 90.2848 35.7999 90.3013 35.6157C90.1594 35.6045 90.0276 35.599 89.906 35.599C89.8433 35.599 89.7843 35.5999 89.729 35.6017C89.6737 35.6036 89.6249 35.6064 89.5825 35.6101C89.588 35.7069 89.5945 35.8092 89.6019 35.9171C89.6092 36.0251 89.6175 36.1339 89.6267 36.2437C89.6359 36.3535 89.6461 36.4623 89.6571 36.5703C89.6682 36.6763 89.6811 36.7777 89.6959 36.8745L88.9134 36.8968C88.9171 36.828 88.919 36.7582 88.919 36.6875C88.919 36.6149 88.919 36.5433 88.919 36.4726ZM89.5493 35.0212C89.6046 35.0249 89.659 35.0268 89.7124 35.0268C89.7659 35.0268 89.8184 35.0268 89.87 35.0268C90.0673 35.0268 90.2258 35.0212 90.3456 35.01C90.3566 34.8779 90.3677 34.7449 90.3788 34.6109C90.3917 34.4769 90.3981 34.3336 90.3981 34.1811C90.3981 33.8592 90.3649 33.6145 90.2986 33.447C90.2341 33.2777 90.1382 33.193 90.011 33.193C89.941 33.193 89.8765 33.2181 89.8175 33.2684C89.7585 33.3186 89.7069 33.3968 89.6627 33.5028C89.6203 33.607 89.5862 33.7391 89.5604 33.8992C89.5364 34.0592 89.5244 34.2481 89.5244 34.4658C89.5244 34.5421 89.5263 34.6239 89.53 34.7114C89.5355 34.797 89.5419 34.9002 89.5493 35.0212Z" fill="#FFB577"/>
<path d="M95.8725 36.855C95.8338 36.801 95.8043 36.7405 95.784 36.6735C95.7656 36.6065 95.7517 36.5433 95.7425 36.4837C95.7333 36.4223 95.7278 36.3693 95.7259 36.3246C95.7259 36.28 95.7259 36.253 95.7259 36.2437C95.7259 36.1842 95.7232 36.1134 95.7176 36.0316C95.714 35.9478 95.7038 35.8622 95.6872 35.7748C95.6706 35.6855 95.6467 35.598 95.6154 35.5124C95.5859 35.425 95.5444 35.3468 95.4909 35.278C95.4393 35.2091 95.3748 35.1542 95.2974 35.1133C95.2218 35.0705 95.1306 35.0491 95.0237 35.0491C95.0089 35.0491 94.9933 35.05 94.9767 35.0519C94.9619 35.0538 94.9472 35.0547 94.9325 35.0547V36.7935L94.1694 36.8103C94.1804 36.7452 94.1896 36.6689 94.197 36.5814C94.2062 36.4921 94.2136 36.3981 94.2191 36.2995C94.2247 36.199 94.2293 36.0948 94.233 35.9869C94.2367 35.879 94.2394 35.7729 94.2413 35.6687C94.2431 35.5645 94.244 35.464 94.244 35.3673C94.2459 35.2687 94.2468 35.1803 94.2468 35.1021C94.2468 35.0426 94.2459 34.9551 94.244 34.8398C94.244 34.7244 94.2422 34.5951 94.2385 34.4518C94.2367 34.3067 94.2339 34.155 94.2302 33.9969C94.2284 33.8368 94.2256 33.6842 94.2219 33.5391C94.2182 33.3921 94.2136 33.2591 94.2081 33.14C94.2044 33.019 94.2007 32.926 94.197 32.8609C94.2984 32.8404 94.4071 32.8255 94.5233 32.8162C94.6394 32.805 94.7472 32.7967 94.8467 32.7911C94.9629 32.7837 95.0781 32.7799 95.1923 32.7799C95.3767 32.7725 95.5499 32.7883 95.7121 32.8274C95.8743 32.8646 96.0162 32.9288 96.1379 33.02C96.2614 33.1093 96.3591 33.2256 96.431 33.3689C96.5047 33.5103 96.5434 33.6796 96.5471 33.8768C96.5176 34.0164 96.4706 34.1457 96.4061 34.2648C96.3784 34.315 96.3453 34.3671 96.3065 34.4211C96.2697 34.4732 96.2254 34.5225 96.1738 34.569C96.1241 34.6155 96.0669 34.6583 96.0024 34.6974C95.9379 34.7346 95.866 34.7644 95.7868 34.7867C95.9047 34.8333 96.0006 34.8881 96.0743 34.9514C96.148 35.0128 96.2061 35.0826 96.2485 35.1607C96.2909 35.237 96.3213 35.3198 96.3397 35.4092C96.36 35.4966 96.3738 35.5896 96.3812 35.6883C96.3904 35.785 96.3978 35.8855 96.4033 35.9897C96.4088 36.092 96.419 36.1962 96.4337 36.3023C96.4485 36.3823 96.4669 36.4586 96.489 36.5312C96.5093 36.5944 96.5342 36.6586 96.5637 36.7238C96.595 36.787 96.6328 36.8391 96.677 36.8801L95.8725 36.855ZM95.8448 33.9131C95.843 33.794 95.8172 33.687 95.7674 33.5921C95.7453 33.5531 95.7167 33.514 95.6817 33.4749C95.6485 33.4358 95.6061 33.4014 95.5545 33.3716C95.5048 33.3419 95.4439 33.3177 95.3721 33.2991C95.302 33.2805 95.22 33.2712 95.126 33.2712C95.0541 33.2712 94.9748 33.2814 94.8882 33.3019L94.8993 34.5634C94.9325 34.569 94.9656 34.5737 94.9988 34.5774C95.032 34.5793 95.0624 34.5802 95.09 34.5802C95.1785 34.5802 95.2569 34.5709 95.3251 34.5523C95.3932 34.5337 95.4532 34.5086 95.5048 34.4769C95.5564 34.4453 95.6006 34.4099 95.6375 34.3709C95.6743 34.3318 95.7057 34.2909 95.7315 34.2481C95.7905 34.1494 95.8282 34.0378 95.8448 33.9131Z" fill="#FFB577"/>
<defs>
<linearGradient id="paint0_linear_123_194" x1="10.7415" y1="4.49731" x2="10.7415" y2="11.2252" gradientUnits="userSpaceOnUse">
<stop stop-color="#F2E7DF"/>
</linearGradient>
<linearGradient id="paint1_linear_123_194" x1="9.11011" y1="-0.217041" x2="9.11011" y2="10.3841" gradientUnits="userSpaceOnUse">
<stop stop-color="#F2E7DF"/>
</linearGradient>
<linearGradient id="paint2_linear_123_194" x1="4.66553" y1="7.29154" x2="103.206" y2="31.0811" gradientUnits="userSpaceOnUse">
<stop stop-color="#FFC492" stop-opacity="0.47"/>
<stop offset="0.261295" stop-color="#FFB577"/>
</linearGradient>
</defs>
</svg>
