<svg width="20" height="31" viewBox="0 0 20 31" fill="none" xmlns="http://www.w3.org/2000/svg">
<mask id="mask0_123_269" style="mask-type:alpha" maskUnits="userSpaceOnUse" x="0" y="0" width="20" height="31">
<rect width="19.0968" height="30.2727" fill="#C4C4C4"/>
</mask>
<g mask="url(#mask0_123_269)">
<path fill-rule="evenodd" clip-rule="evenodd" d="M66.8457 27.4518C63.6903 27.4518 61.2529 26.6504 59.5333 25.0477C57.8304 23.445 56.979 20.8823 56.979 17.3597C56.979 10.6316 60.2512 7.26758 66.7956 7.26758C68.3816 7.26758 69.8508 7.45957 71.2031 7.84355C72.5721 8.22754 73.5904 8.65326 74.2582 9.12072V15.3813H68.2481V13.5783C68.2481 12.9439 68.1061 12.4764 67.8223 12.1759C67.5385 11.8754 67.1128 11.7251 66.5452 11.7251C65.9775 11.7251 65.5518 11.8754 65.268 12.1759C64.9842 12.4764 64.8423 12.9439 64.8423 13.5783V21.1411C64.8423 21.7755 64.9842 22.243 65.268 22.5435C65.5518 22.844 65.9775 22.9942 66.5452 22.9942C67.1128 22.9942 67.5385 22.844 67.8223 22.5435C68.1061 22.243 68.2481 21.7755 68.2481 21.1411V19.1127H74.2582V25.5986C73.5737 26.0661 72.5554 26.4918 71.2031 26.8758C69.8675 27.2598 68.415 27.4518 66.8457 27.4518ZM0.759277 22.9942H2.0114V11.7251H0.759277V7.61817H11.7529C13.9066 7.61817 15.551 8.08563 16.6863 9.02055C17.8215 9.93877 18.3892 11.433 18.3892 13.5031C18.3892 15.5733 17.8215 17.0759 16.6863 18.0108C15.551 18.929 13.9066 19.3881 11.7529 19.3881H9.02328V22.9942H11.4274V27.1012H0.759277V22.9942ZM9.87472 15.8321C10.843 15.8321 11.3272 15.2979 11.3272 14.2294V13.3278C11.3272 12.7769 11.202 12.3762 10.9515 12.1258C10.7178 11.8587 10.3589 11.7251 9.87472 11.7251H9.02328V15.8321H9.87472ZM19.2476 27.1012V22.9942H20.4998V11.7251H19.2476V7.61817H36.1513V15.181H30.5418V11.7251H27.5116V15.6818H29.7154V18.5367H27.5116V22.9942H30.5418V19.0375H36.1513V27.1012H19.2476ZM38.3523 22.9942H37.1002V27.1012H43.9153C45.7455 26.4265 45.8998 22.8381 45.7358 21.0513C44.8054 20.8977 42.7602 20.1244 42.0231 18.26C41.286 16.3955 42.5832 12.8761 43.3239 11.3494H49.5841C50.5326 13.3006 51.3185 16.2816 50.7765 18.26C50.3429 19.8426 48.1387 20.7803 47.0908 21.0513C47.0095 21.6475 46.9499 23.2789 47.3618 25.035C47.6737 26.3645 48.4608 26.9184 49.0718 27.1012H50.2306H56.2326V22.9942H55.0556V21.066C55.0556 19.3464 54.2542 18.3614 52.6515 18.111L52.6265 17.8605C53.4612 17.5433 54.104 16.9757 54.5547 16.1576C55.0055 15.3396 55.2309 14.3713 55.2309 13.2527C55.2309 11.266 54.6632 9.83025 53.528 8.94542C52.3927 8.06059 50.7483 7.61817 48.5946 7.61817H37.1002V11.7251H38.3523V22.9942ZM93.9837 11.7251H95.2358V7.61817H85.7697V11.7251H86.9718V15.5316H83.4658V11.7251H84.6679V7.61817H75.2018V11.7251H76.4539V22.9942H75.2018V27.1012H84.6679V22.9942H83.4658V18.8622H86.9718V22.9942H85.7697V27.1012H95.2358V22.9942H93.9837V11.7251ZM48.4728 14.9265C48.9218 14.9265 49.2858 14.5625 49.2858 14.1135C49.2858 13.6645 48.9218 13.3005 48.4728 13.3005C48.0238 13.3005 47.6598 13.6645 47.6598 14.1135C47.6598 14.5625 48.0238 14.9265 48.4728 14.9265ZM46.0068 17.3114C45.2046 17.1162 44.7692 16.146 44.6517 15.6853C44.173 15.044 43.1666 14.2436 42.9715 16.1731C42.7276 18.5851 45.546 19.7775 46.0068 19.7775C49.1775 19.913 49.7466 17.6637 49.855 17.0133C49.9634 16.3628 49.584 16.4712 49.313 16.6338C47.9851 17.5824 47.0095 17.5553 46.0068 17.3114Z" fill="#FFB577"/>
<path d="M9.50131 8.46978C9.23704 9.14249 10.0519 9.70107 10.4923 9.89627C10.3122 8.9653 11.3482 8.15445 11.8438 7.47875C12.3393 6.80304 11.8137 6.30753 10.8677 5.87207C11.153 7.17843 9.83166 7.6289 9.50131 8.46978Z" fill="#2D2D2B"/>
<path fill-rule="evenodd" clip-rule="evenodd" d="M11.5512 11.2252L10.1743 10.615C9.8884 10.4883 9.47232 10.2438 9.15142 9.89102C8.82964 9.53731 8.48084 8.9178 8.76993 8.18193C8.90632 7.83477 9.13014 7.56294 9.31527 7.36105C9.39763 7.27123 9.48447 7.18268 9.56113 7.10452C9.57189 7.09355 9.58244 7.08279 9.59275 7.07226C9.68098 6.98216 9.75701 6.90344 9.82612 6.82507C10.0839 6.53277 10.1662 6.34274 10.1 6.03958L9.76319 4.49731L11.1972 5.1574C11.6835 5.38127 12.2203 5.68471 12.5369 6.12792C12.7113 6.37217 12.8333 6.6788 12.8198 7.03343C12.8066 7.38016 12.6673 7.68615 12.4785 7.94353C12.3369 8.13663 12.1639 8.33235 12.0135 8.50239C12.005 8.51204 11.9965 8.52162 11.9881 8.53111C11.8215 8.71967 11.6734 8.88895 11.5476 9.05911C11.2806 9.42007 11.2405 9.61968 11.265 9.74654L11.5512 11.2252ZM10.4929 9.89598C10.4377 9.61081 10.4967 9.33692 10.6192 9.07472C10.8001 8.68769 11.1197 8.32615 11.4155 7.9915C11.5735 7.81275 11.7247 7.64166 11.8444 7.47846C12.1636 7.04309 12.059 6.68253 11.6912 6.36463C11.4881 6.18915 11.2048 6.02667 10.8683 5.87178C10.941 6.20437 10.9095 6.48149 10.8167 6.72369C10.6761 7.09066 10.3949 7.37749 10.1221 7.65571C9.86774 7.91512 9.62072 8.16706 9.50191 8.46949C9.37345 8.79646 9.49994 9.09647 9.71447 9.3409C9.9413 9.59935 10.2666 9.79566 10.4929 9.89598Z" fill="url(#paint0_linear_123_269)"/>
<path d="M6.67509 6.25572C6.15603 7.57603 7.75646 8.67235 8.62156 9.05548C8.26766 7.22827 10.3026 5.63683 11.2758 4.31063C12.2491 2.98443 11.2169 2.01189 9.35886 1.15723C9.9192 3.72121 7.32391 4.60534 6.67509 6.25572Z" fill="#2D2D2B"/>
<path fill-rule="evenodd" clip-rule="evenodd" d="M9.67959 10.3841L8.3027 9.77435C7.80452 9.55372 7.08588 9.12784 6.54733 8.53626C6.00793 7.94376 5.52608 7.02774 5.94279 5.96779C6.15885 5.41821 6.52207 4.96748 6.86711 4.59147C7.01961 4.42529 7.18054 4.26129 7.33194 4.107C7.35318 4.08536 7.37422 4.06392 7.39503 4.04269C7.56861 3.86554 7.73025 3.69862 7.88033 3.52854C8.46198 2.86938 8.79378 2.25664 8.59016 1.32494L8.25317 -0.217041L9.68711 0.44256C10.6294 0.876009 11.5209 1.40345 12.0184 2.09959C12.2834 2.47031 12.4525 2.91073 12.4336 3.40828C12.415 3.89789 12.2177 4.35573 11.9095 4.77572C11.6525 5.12581 11.3339 5.48597 11.0323 5.82695C11.018 5.84312 11.0037 5.85925 10.9895 5.87533C10.6647 6.24255 10.3525 6.59839 10.0828 6.9628C9.52809 7.71231 9.28192 8.331 9.39324 8.90574L9.67959 10.3841ZM8.62116 9.05528C8.56326 8.75633 8.5693 8.46369 8.62418 8.17749C8.8237 7.13691 9.66877 6.18148 10.4331 5.31738C10.7434 4.96653 11.0404 4.63075 11.2754 4.31043C12.0861 3.20578 11.5054 2.34649 10.215 1.59631C9.95617 1.44586 9.66884 1.2998 9.35846 1.15703C9.43021 1.48536 9.45022 1.78615 9.4292 2.06453C9.34509 3.17814 8.60432 3.93313 7.89278 4.65831C7.39321 5.16747 6.90805 5.66193 6.67469 6.25552C6.29938 7.21019 7.03218 8.04775 7.79388 8.58327C8.08561 8.78838 8.38158 8.94918 8.62116 9.05528Z" fill="url(#paint1_linear_123_269)"/>
<path fill-rule="evenodd" clip-rule="evenodd" d="M5.64258 12.9744V10.3167H13.4357V11.0825C14.5203 11.1867 14.9603 11.9646 15.1279 12.6113C15.2475 13.0729 15.2124 13.571 15.0096 14.0026C14.3838 15.3345 12.8883 15.2395 12.5348 15.1217C11.3936 16.368 10.1623 16.5331 9.38148 16.5331C6.70269 16.425 5.77271 14.1156 5.64258 12.9744ZM6.8288 10.9924H6.46843C6.46843 12.6417 6.46843 13.0536 6.57195 13.4375C6.6064 13.5652 6.65232 13.6899 6.71351 13.856C6.72624 13.8906 6.73964 13.9269 6.75372 13.9655C7.03902 14.7463 8.30034 15.5271 9.09617 15.5271C8.03006 15.2718 7.54956 14.5811 7.12912 13.9655C6.79277 13.473 6.78876 11.7782 6.8288 10.9924ZM13.4507 11.9083C13.4707 12.4438 13.4176 13.6861 13.0452 14.3709C13.8861 14.2207 14.1564 13.8603 14.2615 13.0945C14.3456 12.4819 13.756 12.0484 13.4507 11.9083Z" fill="#2D2D2B"/>
</g>
<defs>
<linearGradient id="paint0_linear_123_269" x1="10.7415" y1="4.49731" x2="10.7415" y2="11.2252" gradientUnits="userSpaceOnUse">
<stop stop-color="#F2E7DF"/>
</linearGradient>
<linearGradient id="paint1_linear_123_269" x1="9.11011" y1="-0.217041" x2="9.11011" y2="10.3841" gradientUnits="userSpaceOnUse">
<stop stop-color="#F2E7DF"/>
</linearGradient>
</defs>
</svg>
